<mxfile host="www.draw.io" modified="2020-01-12T14:09:07.875Z" agent="Mozilla/5.0 (Macintosh; Intel Mac OS X 10_14_5) AppleWebKit/537.36 (KHTML, like Gecko) Chrome/79.0.3945.88 Safari/537.36" etag="YKkVAUpnMohuFRsAPJXp" version="12.5.1" type="github" pages="2">
  <diagram id="FtQwP9EFmMrM_mpXrxir" name="client-server">
    <mxGraphModel dx="815" dy="497" grid="1" gridSize="10" guides="1" tooltips="1" connect="1" arrows="1" fold="1" page="1" pageScale="1" pageWidth="827" pageHeight="1169" math="0" shadow="0">
      <root>
        <mxCell id="0"/>
        <mxCell id="1" parent="0"/>
        <mxCell id="vCAZzzrZ-O0ghBjWpOAB-1" value="trpc" style="rounded=0;whiteSpace=wrap;html=1;align=left;verticalAlign=top;" parent="1" vertex="1">
          <mxGeometry x="20" y="10" width="720" height="490" as="geometry"/>
        </mxCell>
        <mxCell id="vCAZzzrZ-O0ghBjWpOAB-3" value="client" style="whiteSpace=wrap;html=1;aspect=fixed;align=left;verticalAlign=top;" parent="1" vertex="1">
          <mxGeometry x="380" y="40" width="330" height="330" as="geometry"/>
        </mxCell>
        <mxCell id="vCAZzzrZ-O0ghBjWpOAB-13" value="" style="rounded=0;whiteSpace=wrap;html=1;align=left;" parent="1" vertex="1">
          <mxGeometry x="20" y="550" width="120" height="60" as="geometry"/>
        </mxCell>
        <mxCell id="vCAZzzrZ-O0ghBjWpOAB-14" value="" style="rounded=0;whiteSpace=wrap;html=1;align=left;" parent="1" vertex="1">
          <mxGeometry x="20" y="630" width="120" height="60" as="geometry"/>
        </mxCell>
        <mxCell id="vCAZzzrZ-O0ghBjWpOAB-28" value="" style="rounded=0;whiteSpace=wrap;html=1;align=left;" parent="1" vertex="1">
          <mxGeometry x="35" y="40" width="310" height="190" as="geometry"/>
        </mxCell>
        <mxCell id="vCAZzzrZ-O0ghBjWpOAB-29" value="adapter" style="rounded=0;whiteSpace=wrap;html=1;align=left;verticalAlign=top;" parent="1" vertex="1">
          <mxGeometry x="45" y="60" width="140" height="150" as="geometry"/>
        </mxCell>
        <mxCell id="vCAZzzrZ-O0ghBjWpOAB-30" value="adapter" style="rounded=0;whiteSpace=wrap;html=1;align=left;verticalAlign=top;" parent="1" vertex="1">
          <mxGeometry x="190" y="60" width="140" height="150" as="geometry"/>
        </mxCell>
        <mxCell id="vCAZzzrZ-O0ghBjWpOAB-31" value="handleGroup" style="rounded=0;whiteSpace=wrap;html=1;align=left;verticalAlign=top;" parent="1" vertex="1">
          <mxGeometry x="200" y="90" width="80" height="40" as="geometry"/>
        </mxCell>
        <mxCell id="vCAZzzrZ-O0ghBjWpOAB-32" value="transport" style="rounded=0;whiteSpace=wrap;html=1;align=left;verticalAlign=top;" parent="1" vertex="1">
          <mxGeometry x="200" y="140" width="80" height="30" as="geometry"/>
        </mxCell>
        <mxCell id="vCAZzzrZ-O0ghBjWpOAB-33" value="transport" style="rounded=0;whiteSpace=wrap;html=1;align=left;verticalAlign=top;" parent="1" vertex="1">
          <mxGeometry x="50" y="140" width="90" height="30" as="geometry"/>
        </mxCell>
        <mxCell id="vCAZzzrZ-O0ghBjWpOAB-34" value="handleGroup" style="rounded=0;whiteSpace=wrap;html=1;align=left;verticalAlign=top;" parent="1" vertex="1">
          <mxGeometry x="50" y="90" width="90" height="40" as="geometry"/>
        </mxCell>
        <mxCell id="GyUsgk5wj7qZAm7hxuYM-1" value="selector" style="rounded=0;whiteSpace=wrap;html=1;align=left;verticalAlign=top;" vertex="1" parent="1">
          <mxGeometry x="400" y="120" width="300" height="210" as="geometry"/>
        </mxCell>
        <mxCell id="GyUsgk5wj7qZAm7hxuYM-2" value="balance" style="rounded=0;whiteSpace=wrap;html=1;align=left;" vertex="1" parent="1">
          <mxGeometry x="410" y="150" width="100" height="30" as="geometry"/>
        </mxCell>
        <mxCell id="GyUsgk5wj7qZAm7hxuYM-3" value="circuitbreaker" style="rounded=0;whiteSpace=wrap;html=1;align=left;" vertex="1" parent="1">
          <mxGeometry x="410" y="200" width="100" height="30" as="geometry"/>
        </mxCell>
        <mxCell id="GyUsgk5wj7qZAm7hxuYM-4" value="discovery" style="rounded=0;whiteSpace=wrap;html=1;align=left;" vertex="1" parent="1">
          <mxGeometry x="520" y="200" width="120" height="30" as="geometry"/>
        </mxCell>
        <mxCell id="GyUsgk5wj7qZAm7hxuYM-5" value="registry" style="rounded=0;whiteSpace=wrap;html=1;align=left;" vertex="1" parent="1">
          <mxGeometry x="520" y="150" width="120" height="30" as="geometry"/>
        </mxCell>
        <mxCell id="GyUsgk5wj7qZAm7hxuYM-8" value="service_proxy" style="rounded=0;whiteSpace=wrap;html=1;align=left;" vertex="1" parent="1">
          <mxGeometry x="400" y="70" width="90" height="40" as="geometry"/>
        </mxCell>
        <mxCell id="GyUsgk5wj7qZAm7hxuYM-10" value="client_transport" style="rounded=0;whiteSpace=wrap;html=1;align=left;" vertex="1" parent="1">
          <mxGeometry x="505" y="70" width="90" height="40" as="geometry"/>
        </mxCell>
      </root>
    </mxGraphModel>
  </diagram>
  <diagram id="1OrISo551STGt0CdM4fH" name="overview">
    <mxGraphModel dx="815" dy="497" grid="1" gridSize="10" guides="1" tooltips="1" connect="1" arrows="1" fold="1" page="1" pageScale="1" pageWidth="827" pageHeight="1169" math="0" shadow="0">
      <root>
        <mxCell id="iOIIFBz9e_os43AqmlWz-0"/>
        <mxCell id="iOIIFBz9e_os43AqmlWz-1" parent="iOIIFBz9e_os43AqmlWz-0"/>
        <mxCell id="LalMrr63CKmodGzZMAdo-0" value="" style="shape=image;verticalLabelPosition=bottom;labelBackgroundColor=#ffffff;verticalAlign=top;aspect=fixed;imageAspect=0;image=data:image/png,iVBORw0KGgoAAAANSUhEUgAAAvcAAAGjCAYAAACoiDrHAAAgAElEQVR4Aey9C7QV1ZUufMD2N+nRGfa4dyT6j4y8ujvo6ARi0hiV+MC0GpNOS1+M6E18oDSKtomghJ+rRiUJGoSIYBTxAbYYiUYeEiIaSGgVH4D4gCCSiLQKHBC5CEY5HGDPf3xrn1l77dpVtdda9dy1Z41xTlWtWs9vrj3XV3PNWquD5BAEBAFBQBAQBAQBQUAQEAQEgVIg0FGKVkgjBAFBQBAQBAQBQUAQEAQEAUGAhNxLJxAEBAFBQBAQBAQBQUAQEARKgoCQ+5IIUpohCAgCgoAgIAgIAoKAICAICLmXPiAICAKCgCAgCAgCgoAgIAiUBAEh9yURpDRDEBAEBAFBQBAQBAQBQUAQEHIvfUAQEAQEAUFAEBAEBAFBQBAoCQJC7ksiSGmGICAICAKCgCAgCAgCgoAgIORe+oAgIAgIAoKAICAICAKCgCBQEgSE3JdEkNIMQUAQEAQEAUFAEBAEBAFBQMi99AFBQBAQBAQBQUAQEAQEAUGgJAgIuS+JIKUZgoAgIAgIAoKAICAICAKCgJB76QOCgCAgCAgCgoAgIAgIAoJASRAQcl8SQUozBAFBQBAQBAQBQUAQEAQEASH30gcEAUFAEBAEBAFBQBDIEYGNGzfS0qVLaebMmXT99dd7f0OGDKETTjjB6O+MM87w0iGPadOmqTzXrVuXY8uk6DwQEHKfB+pSpiAgCAgCgkBbIwDCFUjmzj6HTjzpJKO/MwYNqiNzkydPVnk+99xzbY1tURu/Z88eJR8Q7/PPP18R9k9/+tPU0dFBn/rUp+i4446j73znO3T55Zd7f7fccgvNmjXL6O/222/30iGP7373uyrPf/iHf1BlfOITn1Bl4oUBdVi0aBHt3LmzqHBJvWIgIOQ+BniSVBAQBAQBQUAQCEOgs7OT5s2bp4jUad/4hiLshx76t4pofb7PETTg+BPprO+eR1f88Brvb8pd99OD858w+rvzPx/20iGPi0Z8X+X5T0cfo8oAaeQXhbFjxyqrMCzEcmSDAF7gYIm/+OKLqV+/fnTIIYcosg3ifdNNNynC/oc//IHWr1+fyd8zzzyjysQLA+owcOBAOvTQQ6lPnz7qZQOW/pdeeikbcKSUVBEQcp8qvMXLHIMNrEU84ODtHX9XjBzpDQI8GESdL7lkRJ3FaPbs2SpfGTiKJ3OpkSAgCGSDACzmsJ4POfsc+vRnPkufOOxwOv1fzlAEfOZDjyrC/vLrnfTG9g8z++MXhTHX/kS9SHzq05+hww47nGD1B8HEeCBHcggAT5B5kGZYzGGJv+GGG2j+/PmZEHiXFwVY8NEXYOn/whe+oOqOmQXwBDlaEwEh960pt8ha61N/GGRA0jHQwIqDwQbWIh5w2GJ07U8nGlmKeKD4ycSpdRajMwYPUfli4EA5GDxQLk8by/RfpMhyfwhSAhnxyx7O8N808fX0+3liQBDCkLtIpQIZIABdC8MG9OwhH/kIwWIO6zms70+9+FpmBN72ZWH52o0Eq/+lV4xWehs6G7oaVmZx07DvOEzo4fYC1xqQ+ZUrVxaWzDd7AUDdQfZPO+00Ifr23aEQKYTcF0IM8SrBU3+wpvf70pfUIAMCD+LOU7xZDzQYPPAiwNPGJ58CJfG31OeII+n8C4aqD31k+i+e3F1Sg8RDacOyBOKOwQgD+1e+8hU1Rav7esJ/08TX0+/niQEBAxzyhfUK5cAKhBcGIf0uUpM0RUIA5BckGGQYhB6GDejZdZt2FpbMm5B/6Gq4CEFPwzADFw3M9MoRjAD6wXXXXad0KBN6uL00I86t9txP9H/wgx9IvwjuEoUKFXJfKHGYVwbWUZBkKGL4bkIpw5q+cOnyQg8wi599mW6+7S4698Lh9MV+1RcRWL1g/YIVTI5kEQCZBqkGwYa/J0j8JZdcoixLIO5pD0YYGFAOXijw4sCkH/VBvTBbIHJPVuaSWzoIwOWQdS70LciwCWluxTgwzEBHY6YXLzFiiKn1KSb1+BD2+9//fuo6tEgvA9DnV199tfr4V0h+rU8U8UrIfRGlElInndDDrQYkOWv/zaQHKli7YPWC9QsvKiD6MjUc0gEMg/GiBFcZWM5BpkGqQbBXr15dGKsS6sMfdOGlA2QfcheibyhkiZYZAiC2ILhwOYTOTVoHFj0/vMTAEANrfjvPvPlJPYhukYh3lnXBWKKTfGAjR7EQEHJfLHk01AbToldcMVJN/5aF0IcNZkz0eWoYVrIir89beeUXdN2St4jPDcLLMAA48Udc//qv/0pwlclS2cctC2QfH57BjQcuPLKUX4adR4oKRIBJPYhtma30YfrYHw5rPtw9QfLb7fcJ/dq/f39lqW9nUu/X80zyP//5z7f1i1+gAsk5UMh9zgIIK56ngDEt+qOfTmx5f07/QGFyDysZXI6KOi3MpJ7PYbJMMxxWeixjhlUZWv0jLgwcGCzgwgP3IUx7Y8k2OQSBrBG444471MexQuobV/UByceHw9ddd33WYsmlvBkzZtAXv/hF5ULoJ7dyX13CE+6dmCX+0Y9+lIuMpNBGBITcN2KSawgsBO08BRxE+vVp4WwsRpvp0ZvPovNHDqahkx4hfFJW6ZxP1446U4VdMGoULdxa8Sz2eZB74PDVr36VYKWH33oZBxms/3zhhReqlxe0UQ5BIG0E4F4w5Oyz6bwLh7elQSVI/4aFjRxzLX31mGNK+3ElXAQxi4gZxSK5NBZZ18MPHy6W4qaTtqZqnr+Q++YYZRZjxoyZ1P+rx8gUcMga0Gpa+IST6MYbb0xVJpt/N0a526AQXE9fc4AqWzcpkl8XloNbDty0sLsgLNsPPfRQKUm9f/ACscdmKxg05MO+VLt+W2eOvnX0V4+hqXff33Z+9WEEvln4nEVPqtnVxx4r38v3qaeeSj/72c/aQsf6dW6ce7hYHn/88ULwc9amQu5zFgCKx1su/Mvha97qH8g2GwziPodf/mUjf0jY7TGtZdpeuH+0sszXd42aNR8WfUX4Myb3c+fOVasUwFUljvJt1bQYNLDBirjq1PdMuYuPANwgjz/hJMJqXnF1VLulx5g14IRy+eGfd955NGHChLbUs0mMD/fcc4+aVZYFEuLrJtcchNy7IpdQOrYWTWzDVRjiDILY7bFvvy+lYskNstzrhP+F+8/OnNyD0H7jG9+Q6eH16+miiy5SHw8n9BOUbNocARhXoEuy3gskjv4rWloQfGBYhh3KH3zwQUVMkyC57ZzHiBEjUp9lb3PVFdl8IfeR8KT7UKxFjR9r2Qxa2CjrayeclALBr1npPZ/7V36h/O1htZ82a0rdKjlp+tzD8gErEghtOw8U/rb/+Mc/Jkybi29nujqqHXLHrGk7Glc2PD2Z/r8Ff05spgJuk1hJp5UP6BOs/JL2/h9+fVbGe3yn8KlPfSq1GfZW7mdZ1F3IfRYoB5SRlrUIChsElP8uGHUFzVr3gVLgjc8m0uM9/u36swtG1cJtyLY/btKDhz9/3JfJYhTQTRSBlenh6ooM/gEQU79HH320rI0f1HEkzAgBzJxiqcsg3SJh9sYXLNeM/Vha9cBeG/iA1q9r5D5YBzfDBZt8YbNCObJHQMh99pirEtOyFjUQ6lcfpjH3PumRe91S48V99WH6oUboET60J00rDHBlsBgFdUN8OIypzWYKtJ2fjxs3Tlx0gjqPhBkhgD1EsNRwqnoO+nVkdaUtT6++8wzd3LP61tCbZtPK7R8S9O4PbxpJMK5MvHuUZ5T57T1XVq+bpGFDzRtaeWzcQd5j7pmk6sHGG0//hyxg4IIJNiTERoStemA2EEaDNHXqa4t+6hnflBFu1KU08/nXVJn+ZxeMuoF+s75KrPVnerhtXZHPmNlPp9pGrhMWQ8BSzXJkj4CQ++wxV24kaVmLGhS2AblfPv8q+vkzVeu+p9DXbVADjnevDwA5Dh6B9dn+IbW6xcjfDbEkKtZWliXYmluMsL5yO++c6e87cm+OAJZyxIovYXolifAg/aqHsc7Gmck/h73xzjM08WdV8t8sjVdXTXdzGpW39hIBI49Xhq7bY17DVfKwww43F4Av5uLFi+m+++7zhWZ3CyKa9tLCfnL92nN30w9vn+ORe514c1zEGe0j+kN70jCRLuIZ4xd2IJcjewSE3GePudpxNi1rERQ2u+TgzJYbKP7GZ1X3Gx4AvMGhmYLPcfAIq2OrW4z83RBr2LfLUpdxByWshw8/WVmZwd+L5L4ZAiCiIKRheiWR8ACL+2/vHlKnp0Hq68h2D6lfofnFN03j6e0NdN+N1X06MAbAcFOXd4/Bpy7MS2vviuPHqKPDnlaA1A8aNEhZeceOHdtMbKk9/8QnPpG6vz0TdtZ7JuT+mQe/TxMfr1r3Od3655fRcz1WfYSpF4CeGaLze2YDUNYPbx9Ho0eeSWzt95fv5afllWSYS39ITcBtlLH9r7CNwEmrqWlai3SFjWu2BEEB6890hRxE7h9b9nTEgJfv4KHXna/jWozSkrVLvryue5IKNm5er911Hh19zePE57j5JZ3+u9/9Lk2bNs0FbknTxgj0+9KXaOHS5RG6Lj7ZZR2FM7vYBOlcv35GXLjp8DdTJmn0MtT13UM8cs9jAZfDZ71+ca/xDdShh/6tcY/atGmTR+phNcefTu6xmACH47x8+XIvb9dnXgYBF9hLA0vuJq2f9PxArnUDHBNxxPE/Y0IeSO79ZFwj+xwf+V3wk2nqJYBJPZ/1OqV1DcMLdhqXI3sEhNxnj7matkzLWuRX2LD2sMuN/5mnyAN87tkv04ujWXZ4gMIzzh95ZzF4BNWHw5pZCGAdwmBS9AO7It50002pDjC2ypxJPZ9t06cdHwMyBmY5BAEbBOAfjlk/1iFpnEHKmcyxjoS7Dfvc41mQm4zSqT2uNKpeBmkQD+m4vIn3TPLyxosCwlm3h44Hmq63xcPl+yfoZBB6JvE6ubeRZRJx8fEnPgJNU1/p5BrXunuN/kyvA5N1PWzB43N99XyG7v3xd2qyf/w19bLAbj48QxBWhp53UtcYxzCeyZE9AkLus8ec0rQWNShsTO9eWXW/aXimKXF9QGDlH6bY9bhZDx5hdYqyGPGU76RJk3KQtn2R/fr1o/nz5/sUd3Pf8zgK+bUnrqOjevUivCCxhR7X+j2H47z+tRk0pPdB6vlf/+/pqq4g/l/+8pep1/9zFt273jeF7LcyJXy/cuVKOvTQQ+3BlhRtjQBmyU4+5bRUyX2YzsoyPEr3J1mPcy8c7jyDxiQ/T3KP5amxfGMcXdosrZ9cP/qLIZ7Ljf8Z5xXkc89WfY7z6C8u9z7M5TyRH788cN585nRpnuV7qPzUq5D7HLDPwlqUpMI2ySurwSOsLkEWo6ApX7YOFeEcNouQhd+nX6HfdfbRdO3v1jUOaq/NoLP/93TPHYct90/8n+MUsQf5ZzLPz/x5Z3WPusghCNgikKabZJi+yjo8C/2MTcD6HHFE7G9furq6bEWYaPwxY8bQ6NGjG3VhQgaJBnL92nyaMGqcWhWn4ZlWJp7xjIyf2EPH6s8n3P5jtSIOwkb/5LKeGZvqyjtRZSSpqydPnkxDhgxJVDaSmTkCMhqaY5VYzDJai7IYPKIGxDCLEVuDQOZhwW+FAz6K8FVMUtE2y8tP7kHU2XIPyzwTdz6D3H/3nvqXAX7WrKw0nsuqDK3Qs4tZR7UyVb8v0bpNO0tvwY/SoXGfDTj+xFKsWoUP87F/Rtazp3H1In5dnAf/0pjI873+nK/TOGP86t+/v2xgxcDncBZynwPoKLIdrEVxBwvT9CYWI5D88ePHt4TPfRZrLfsVut8tR7fMB5F73S3nr/5pLC2G5ajno1t/3lnc44UZL3ByCAIuCDz22CL65rfPEIKvuWqa6l/EO+/C4XTHHXe4QF/INGqTyb59U18WM0nduP9jn/SwxHWz+yTL1vPC7r7/9E//RHhpliM/BITc54S9WIuSW4XCxmKU95SvSXfDqi9Y/UVXmHId/c2B7IRo0rMkThQCDz44m/7p6GNo8bMviwXfkOTjWyd8s/Cj68q3Cyn87/v27UtwL2kV/cuknuvb7J7jJXXG8s3YnwU7P8uRLwJC7nPEX6xF8Qn+kO+eTzNmzMhRiskXjWlhuObAApKU0i1zPnDJwUdwnZ2dyQtDcmwrBEBKjv7qMTT17nRX0LGxihc1Lr5z+nyfI5R1u6ydBLoYfuPf+973ZENBzf8/aDzBdwrYn0X0cDF+DULuc5aDWIvcCD6WEoXFvmzEnrtjEde6D1LoRQjDwFsmlwDuA3LOBwG4ZAw5+2zlapLWksVFJewm9YK1/rKRP6QTTzqpbYgc9AtWfkl7Dfwi6FPbOuDbhIEDBxI+RJajOAgIuS+ALGAt6tfvSzTxtrtkOthgOnjmQ48qi9HSpUsLIL30qgCLUStNCdsOCknExzQwrEVyCAJJIwBC9+nPfIaGjfh++rvYGug9E+KdZhyQ+pFjrlWY3HjjjUnDXfj8nnvuObWXhpD8qoskSP1pp51GWLoZxig5ioWAkPuCyAPTf+dfMJQGDR4iA0nIQIfBZdil36fTvvENgnWt7AemN+HzCcWZBBEuWx7y4VbZfwH5tw96+ZZbJrc1yddJ/XXXX98Wujeq58GohA3z2pXk66R+3rx5UVDJsxwREHKfI/hBRcNNB9YiLO2IVWDStMS0St764HLLLbcEwVbaMHx4jSXFZDq4/oNaDDDART7cKm3XL1TDdJJ/xuAhalfbsi+deed/Pkxnffc8NR4JqW/sjkzy/+Ef/kHtaltmIwyWtrz66qvpC1/4grLUC6lv7A9FCxFyXzSJEKlNQLBiyqc/81mlXNuV5MPfFVPinzjscGrnwQWzFLAUXXPNNWLBX79e+dcff/zxhNUs5BAEskQAJH/27NmEjQgPPfRvqWxEnwm9atugQTRz5sy2t9Q3618wwFx//fVqKd4yEX2d0GOBhyuuuEKMKc06Q4GeC7kvkDCCqgLlCpJ/+r+cQTffdhfBit0qFneXesIaNuWu+9WgiRkMTIljQJWD6Ac/+IHyccx6g6uiuPOsXLmSLrzwQvrXf/1XIRzyg8gdAT/Rx5KQV/zwGsIqMq2gp6FrUdcx1/5EjS9C6ON3KZ3ow8qNJY1vuummlnCtxLiCmfGhQ4cqC70Q+vj9Ic8chNznib5F2ZgGg08+FDAGkZ9MnFoa33wMhHhxgRUM7YNVDNYxIfWNHQT94POf/zyNGDGCQHaLQrzTrAeWusQyaxhs2s0tq7EHSEgREYCuglsGLLhYRQZ6DMtEwq3l2p9OVCTaxdiRZJo5i55UehYun1/s9yU65CMfUXUdO3YsQa+0w3dMWfYduAxiBv78889XVv1DDz1UrSpz+eWXKzfLPI00+F4Jrp5XXXWVMhh94hOfUPqVF3EQd8cse0o6ZQm5TwfXVHPFIHLJJSPosMMOV5uuXHrFaMJ0aqss2wYyjxVvYOXCcpYYCPHiIoTerNuASGC1CpD8cePGlZrg33777aqdWGZNyIdZ/5BYxUAAVlzMvF4xcqQi0R0dHYQ/6Dz8Qf+xpR8WdFeLP1vgOQ9Y4pEvjEAoByQe5WJXdOhZEE4hb9n3EegvfgGEmyWMFZAL9ujAx7nf+c53CMQfln4Qb/6z2e8EBh9OhzOMIcgTMwgoA25DKBNkHnXgFztZmz77/pB2iULu00Y45fyxPBeUwRmDBimyD/90uPBAwUPZ5034QeRRD1ivYJn/1Kc/o8g8VryBlavsy1mmKX4o5IsvvlgpaijvsnzQBYvWJZdcoga9M844Q3zr0+xEknfmCEDn4Q/6jy39sPazxR/ky+aPLfCcBwgb8oU+QDkyA9pcxE899RQ9+OCDzSOmEAPfDkFOeBGE3GDpB/HmPxBx0/6A2QFOhzMs8cgTL3QoAy+ccrQHAkLuSyZnED5MsULBQ9nDug/FgCliWHEwJQurDvza2dLjut06PvTlPDBzgHwvGvF9VQ6mfVEurPKoB6xXsMzLR5DJdzjIHMq7T58+ylfyhhtuaDmXHbje4CUV1iVYtDAzIX0l+b4iOQoCgkANge3bt9Nll11Gp59+OoHgyyEIlAUBIfdlkWSTduCNHW/uIIF4k4dfO1t6+hxxZKhl4JBDDqHevXsHPseHvpwHZg6QLzZdQjky7dtEICk9Bu6w5sOCA6LM/p1p+sS75o0NqODzid0NUV9YrNB35BAEBIH2RmDLtk2pAtDV1UXTp09Xy+nijHs5BIEyISDkvkzSTKEt5513Hi1fvjyFnCXLtBEAUcYLF6Zn8ZIGEg0yDV/MrD/GhWUe5WKtZOxqCDKPnWUxwwT3AXEdSLs3SP6CQGsg8OamN+g3S+ZSWgQfFnpY6mGxh+VeDkGgjAgIuS+jVBNsk5D7BMHMMStezQNkGmQf5BpuU1/5ylc8Cz+It/4xlukLgP8jLrgFYcYALxOYPUA5eLlAuVgrWVbmyLEjSNGCQEEReG/3Tvrgw7/Q3McfUjXEed2f19D2HdsSqfGmTZtK44Kza9euRDCRTMqLgJD78so2kZYJuU8ExsJmgg+y2cIP4g0Czn/8AgByHvWHeJwGZ7gFYcaAP+grbOOlYoKAIFAIBEDiX1j9PP3+mcfp9f9eT8+9+LQi9r+cPzN2/eByM3XqVBowYIByxSmDCw4+lJVZh9hdo9QZCLkvtXjjN07IfXwMJQdBQBAQBASBcATghgMLPcg93HLunv0LRe5B8nHvesAF5+STT6ZRo0aVhgwvXrxYLZ4wfvx4V1gkXRsgIOS+DYQcp4lC7uOgJ2kFAUFAEBAETBCAlR4Ef9L0nyj3HBB+HHDP6d7XbZKFFwcuOMOGDVO+9WX7ZmzQoEGK3Pft27c0Lyye4OQiMQSE3CcGZTkzEnJfTrlKqwQBQUAQyBuBp5b/3qsCrmG5B8EHscc1fPDxYS0TfS9yyAVcbiZNmuS54IREa9lgWO3h8sguRmirHIJAEAJC7oNQkTAPASH3HhRyIQgIAoKAIBADAZD1hxc+QK+se1H52Ps/luWPaZnow/8ecU1cc0B8QXrL5ILjh/rVV19VQXA1wuzEhg0b/FHkXhBQCAi5l44QiYCQ+0h45KEgIAgIAoKABQIg+LDK4yNaHCDuCONrEHo8g5uOCakHwYULDtxVyuaCo0AJ+MfkPuCRBAkCCgEh99IRIhEQch8JjzwUBAQBQUAQaIIAVsJ5/L8WKLLOhP2+X09XK+PAMq8fIPcmh+6Cc99995kkKU0cIfelEWVqDRFynxq05chYyH055CitEAQEAUEgbwSYuOMDWRB+falLJv1Y777ZsXDhQuWCg3072nFJSCH3zXqIPBdyL30gEgEh95HwyENBQBAQBASBJgiAsOOjWFjp4XLDJB++9biH773+cW1YdnDBwZgEF5yXXnopLFrpw4Xcl17EsRso5D42hOXOQMh9ueUrrRMEBAFBIEsE/Cvf4ANb/4e1/vpgR1asDNO/f39qNxccPxa4F3IfhIqE6QgIudfRkOsGBITcN0AiAYKAICAICAIOCIDEXzvpKrVuPa75o9qorNgFB0tAguTLIeRe+kBzBITcN8eorWMIuW9r8UvjBQFBQBBIFAHsOgvrfTNrPZZ9HDJkiPprZxecIPDFch+EioTpCAi519GQ6wYEhNw3QCIBgoAgIAgIAjEQwMZUYQes8+PHj1cuOA8++GBYtLYOF3Lf1uI3aryQeyOY2jeSkPv2lb20XBAQBASBLBGYM2eOWgVHXHCiURdyH42PPCWyJvd/e+XvCX9H/uQZ2rhjj7ouyj0EyvXDWe7j4/Hp475N//OCOxWuRccT/RH9kvuA3Jcbj//68/+lU25/0ZN3K9wrpVSCf/wbK+I4oI9LMg60xjj4P4b9J33mmG+oP7jjcP9ykV876P3Pf3kA/Y9Lf61waof2Ro3rraD3445TX520wnrUsCb3AFKO9kFALPftI2tpaboIQMGX5ZBxoCySzLcdcMGBlX7AgAEEq70cZgiI5d4Mp7LE4pdcm/ZYk/syDVA2QLVr3DjkvvLKL+i6JW8Rn9sVQ2m3IAAEXBR0UZGLGgcWPb2OLh43h75+0Z305e/8XP4KhAFkcsE1D9GvH385964Ff3osbQn/elkFx04cQu7t8Gr12C5jhzW5dymk1YFt5/oLuU9P+hhgMdCeeP4dQoAKRIBsCelx351K54z5Jf3yN6uoq3tfaIcpk+4Masvuv3Sp/vz1i2fRwMsW0D+P/B2dNvpJ+SsQBpDJwP/4DZ18yS9p8Mj7afO27JeWxMo3vAoOXHDksEcgKXLPhjc+29dEUmSBgMtMqZD7LCTTwmUEk/vN9OjNZ9H5IwfT0EmPUCcRVTrn07WjzlRhF4waRQu3VjyLvSiO+g6AARUDKwZYDLSnjPq9EKACESBbQnrqlX+gky//LZ108YP0rctm0GtvvFMv8J47FwUdmFEBAoPIPV5UT7p0nvTlFunLJ3//MdVfo15Ik+xq27dvFxechAAVcp8QkC2STdRMaVgTrMl9mQaoMFAkvIYAtvn2W1c2/26McrdBLFxPX3OAKls3KZJfFyZuOTUgtStF7C//rZCgFiFBNmT/61c8Qf887G6CFdt/uChofx5FufePA7Mfe4lOufRB6dMt1qe/fumv6eaZ/5V6t8KusnDBwS6z4oITH+7m5L69DHBnj76/5We/0YawI8iYEhaXw63JfZkGKAZBzuEIBCmRF+4frSzz9alqygQWfUX4hdzXQ0REdz70HP3zZQ8JCWoxEmRD8AeOeIR+Mn1Jg+xdFHRDJgUJ8I8DsNpjFsoGJ4mbv8sSXka/cfE9qfUquODAQIQZ4A0bNqRWTrtlHDQu6xi0mwEOrpStfkS1wWXssCb3LoW0OujtXP8gJRKkOHTC/8L9Zwu5D+k08M2GC4cQm/yJTVoyCCNMZdKd/rbguwO4J6WFqeSb3u8lilSEqLGmwXDBGTt2rFoFZw0lH9gAACAASURBVOHChU3jSwQ7BILGZT0HfTyuhZfXAJdGH67hls1VVBv8M6UmNRJyb4JSG8cJViI1JeH53L/yC+VvD6v9tFlT6lbJEZ/7WgcSEpQeSSkSAQxS1C4KutZzinXlJ/dob5Hwl7qY/86C+qptb1u8eLGXRFxwPChSuwgel2vFtZsBLok+XEMvn6uoNvhnSk1qaE3uyzRAmQDU7nGaKZF2x8e2/UKCzElHKxO0IEXtoqBt+1dW8f3jgPTr1u3XQX3Vph9hfXosa7l8+XI6/fTTadiwYeKCYwOgQ9zm43J7GeDi9mEHESSeJKoNfmOKSeHW5L5MA5QJQO0ep7kSaXeE7NovJKh1SZDNy0aQonZR0Ha9K7vY/nFA+nXr9uugvmrak+B+gw9l4VePjah0C75pHhLPHgEZl+sxi9OH63PK7y6qDS5jhzW5dykkP7ik5LgIiBKJi2B9eiFBrUuChNzX+rJ/HJB+3br9OopU1CQefDVq1Cjq06cP9e3bV1nvu7oaV4kKTimhcRCQcbkevTh9uD6n/O6i2uCfKTWppZB7E5TaOI4okWSFLySodUlQXHLvoqCT7X3J5Sbkvjz9OIpURPUYLJF8/fXX09SpU9UfXHOwOo4c6SOA7xpkSdEazq59uJZD/ldRbfDPlJrU1prcl2mAMgGo3eMIuU+2Bwi5Lw8piiL7QYraRUEn2/uSy80/Dki/bt1+HdRXk+spkpMgkD4CRerDWEAES4HbHlFt8BtTTPK2JvdlGqBMAGrXOPClxMHknu/bFY+k2l0EEvSN0S/Qw9sqDU2qrH6NvvHDtfSc/mTb2zRi9FNOK6H4y3lzyUt0+s830lvb3lJ5fuuX24hoB/3MMf8ocp33syBF7aKgdVEU6do/DmTZr/39inFJuv9O9AboD+hXk9x+A3n3Q5Pyg/oqYypnQaAVEChSH968+LaAfYCaoxjVBpexw5rcuxTSvFkSo2gI4MMoTP2B3GM1BEy9yhEfgSxJkMnA/h9L3ieQbo6ryH3lXY9wg+DozzleszMTMD3txNXb6WcauW+WR9Tzav5/KSzpClLUZdKd/rbk1a/T6r/qxbPnxRa/iWdWv+b9RqL6ZSs+C+qr8TVdsXI48P4O6t64ivauXUp7Vs6Tvxwx6FqzhLo3rKQD721NrJO49uFK53y6dtSZahnvCx94VtVH3yMAS4ryhpxY5ht/F4yaTFXns8YViYg204JZc6jToWVRbfDPlJpkL+TeBKU2jYMVEPhjKbHcJ9MJ8iJBYaSjGTkCyYFFFOmV1X31a1SzaNas7siHD8TXLfR62Xq4fo04/jy8Mre9S8/yTIMiXPUzD1w/vZy8r4MUtYuCZkyLdm4Vcu/af3Vy7+9LzfvpDnp2zQFa9sun1e9GfxE1SZv1TFZQXy1af4tTn+4t64XM50jmo16m9r21Oo5ovbSufZjJu5cREdX25dlMj068VRF5hDH55zRBewlQZSUtWPK2np3xdVQb/DOlJplak/syDVAmALVzHFjuQe7Hjx/fzjAk2nb8gP1kIc97kA3duh5kuWeSAjIOtcX3bNWvhteIPtqjkyq9fTqhb7jWrKPIG+XoZfJsAMJ1wqTnX5TrIEXtoqAT7XwJZuYfB/Lq12n1X+5rgIz7O/qW6rNN+ini6f2f+/mlmLUySJt1Hw7qqwl2lVyzOrD7HSH2BSX2TPr373Ajw3rHcu7DlZV0R4/lnjfkBEGfNukR2tI5n37UY82vEX4iJve6hZ/r4upvj/RRbfAbU7i8qLM1uS/TABUFjDwjwrJmcMsRq31yvSEvEhRGGALJkdZcnfgzSWEffCYwOOvxUBbyDbKo63no18jDfyBPPQ7ni/BWJPcuCtqPSVHu/eNAXv06rf7Lvxf+BoX7smk/1V+SuY6mabnsrM5RpKIo/c21Ht2vPy/kvuDkHq5ScY43Nu1QxPjRP/wxTjakk3VcT5s1xfOdDyL3QZb7F2ZN6XHZsa9K1O/QZeywJvcuhdg3s8VTVPYTvf9Hoh1LqNI5myqbZ7Ts39urJrds3Suds6jy7hNEu18hOrC3EJ0qLxIURhSYePBznZSAWL+tffDqJ9ogKyA9/jyQlyIyAR/j6nno10F5IB89Du45npD7fLuzfxzIq19zf0i6/3J+OFcJfvWjWn95HM/fTxFenX16kR7eVv02xCYt55vFOYpU5NvL4pfetfoJIfcFJ/d7Vi0wFvT2nX+hZS++QXc+9Cz9+/UP0Qnn/4L+1w9mKnL/h+V/Ns6HI4Kgsy89u93gGXzxfzTpEc93Pojcw7/+0ZvPUumV1b/i7m+PMqN+h/6ZUq5/1FnIfRQ6Ls+6d1Bl25zWJcQt/CIS+RLVOZto7xYXiSaaJi8SFEYS/IRDJ/dMUNgqDwJj6pbDbg2cVuW1+n361S//21stRydE1bzrXXuQRo+De65vK5J7FwWdaOdLMLNWIPdx+i/6Gbvj6H1Tv0b+/OfvpwivvuB+UNff9ZflqLT8LItzFKlIsMvkkhW7fsi52B8Rh3WOlX98i2bMXU6jJsynb116N50y7E76j5/OUeQez3b/pbppWtJ9WCfzYXVLOjyqDf6ZUpOyrcl9mQYoE4Cs4lT2U2Xrw0Lsi/qC0DmL6MAHViJNOnKrkXudzFQJjP/j1uoSgSBDfLALQ9XiyaGkXHd0EqRfg8ToeRBVLaVBcfiFgeNzeVkQIdMyghS1i4KuoVesK/84kFe/Rh/g/gDZ+F9O0X+YUFf7kln/9fddJvqm/dSrC1X7Pfcb7rNVaQb3cY6b1Tmorxart7nXprCkfsU4uqj3wdTR0aH+vnbVbWYzDCvupIn9TqMFK+aaxdes9h/OHUHH9htKa1fap00bR0j4tTfeoV8//jKNv2sJnT36fmXJhnV+6i+fJljlN2/bFdoRkuzDsObXVsQJLTLxB1Ft8BtTTAq3JvdlGqBMALKKs/sVIfZFJfY99aL3nrESadKR8yJBfqKAdulhJvc60TaJb5t/nPh62iJcBylqFwWddP9LKj//OJB1v9b7H7eJ5R52z/037Hmz9Fk+57KyOAf1Vcao1c9pk1Kn/HuI/fApj1gT9D0xyP2aK79CTmVqLwhO7Q1I/8aSh+mJXz5At0y6hy668nZF5EHoQexB8EH0bY4y9OGoNriMHdbk3qUQGyG1clz4d0e6hhSc+LZF3bfNybWLZU2CwsjB/o99UuGA5zhM77EBlU182/xd44e1M6/wIEVdJt3pb0vW/Zr7K/fFst1n2W+D+qr6kZfgX1JkNMl8QLLDLPXzBn880JrP4b37nkIX9TvVs9xzeK+DTmkI6+jVh34+b071BQIvFAfX4iTZHtu85sy4n7550RT6wf+ZRtOnzKRn5syO3dOK2IdtV86JaoN/ptQEMCH3JigZxlEfcAqBL/wLjqE4U4mWNQmKIglMiHBGvFa/j2pr1s+CFLWLgk6lEyaQad7knvsr990y3mfVZ4P6agJdpBBZ2BLPLOKHWdA/nHIGffTMq3vI+J10c79/VORcD4drzTF/VSXpCOeXBIQfd+Y1pMfV26LH1cOLch23sxSxD9vuVBvVBv9MqQle1uS+TAOUCUA2cdrC8l2ClxcbmSYdFz/grAZtk3J0csQESU/Xas/1uud5HaSoXRR00v0vqfz840DR+nWesm+1soP6alL9JO98ikJe9XqEWe79pJ/v+azy0NxyEM4++zjjxaAuruYOM29wv5oVXwvX65Xnddx+YtOH9V1pLxg1Si13qYfxqjn60pi8tj2s8by6Ts0v37dqjmqM/co5UW3wG1NM8LIm92UaoEwAsokj5L41lvy0kWnScYUE1VYYaTUSZFPfIEXtoqCT7n9J5ecfB6Rft26/DuqrSfWTvPPJk7CGla2s772PaCDbdVb3FTXLPQg7W/R1yz3C2XLPZelxOYyt+nxfxHPcfmLThytbN3lLXDJp57Nej9qKOdnsVBvVBpexw5rcuxSiA1bmayH3Qu6b9e+jh9xKp161tFDWexvSKnHNSFyQoi6T7vS3Rfq1Wb8o4u8nqK8202Ot8ryIRBZ1UiS9V2/P8s4knX3oYYnnMHxEe3Pfv1Fx63zutXDE549lvTx6fO7DrPlFwiZuf7LrwzVLO6zw09ccIOxKm/dOtVFt8M+UmuAl5N4EJcM4Qu6F3DfrKt++fAZ9/QePC7nX1ggvIuGJU6dTr/wDHffdqQ1dwUVBN2RSkAA/uR888n46+fuPSb9usX59yqjf04nn31GQXpV8NYpEYHOpS4E+pI1qf1zJRxFjf966u80L959dJfdapPrn2e1UG9UG/0ypVt3QS2tyX6YBKhQVxwdC7oXcN+s6P5m+hAaOeERIUIuRIBuyP/A/fkMXXPNQQ1dwUdANmRQkwD8OTPrPJ+mkix+Wft1i/fqkS+fRD256tCC9KvlqRBFKeVacja3iSj6KGPvz1v3mp82aQtcteYvglsO+9Oxzj3RZ7lQb1Qa/McXfpqB7a3JfpgEqCJA4YULuhdw36z/YPvu0S+4hWMxsCKPEbQ23B7hcnTJ8RuA6zS4Kull/yuu5fxzo6t5Hpw6/m/555O+kX7cIwUdfPfnCuyI3B8qrfyVVrhD44hD4KFnElXcUMY6bd1bpo9rgMnZYk3uXQrICJ+9yhNwLuTfpg/+1cgN9/aK7CFYz8b9vDdJu8nIFi/3Xh91Lv358dWA3KJPuDGoLNp7552F308mXziG4JplgJnGy7//QOQMvW0BfH3Y3QReV+YgilGk+8/vUH6TtDIsPZ/X7NOpR93FuAVfH8bc5bh+MIsb+vHnJZ4TjOu17f/lh91Ft8M+UhuWhhwu519GIeV1Mcj+GhmvbXJ8w7seFX4c+bRxjijmR5LDgYzocHyLiRy1/rY8BXHFeWb85tH+4KOjQzHJ+EETuUaXdf+mia297XH1zIH26mH0aOuficXPojU07cu5F6RfvJ5FZ3YPcH5smoW/iSy/kPrpvZUHq9ZeG6NpUn0aRe/9MqUl+1uS+TAOUCUA2cdImpfb5V4n9iAemxyT0Y2j4wSfQos33WOTjkiYby7+NTCWuIJAUAi4KOqmyk85HxoGkEZX80kAgKzLvL8dP7vEcq9hgRRs8UxtOYUOqnhVzsDIOCPkhg4d6K+Pw8pd7QOR7DHTVnWjv8OLwLrT+FXL8eXkr7/TUA6vr8K621binqjJ4xR1/e9K+jyv7KGIcN++s0ke1IcyYElU3a3JfpgEqChiXZ/bkO10yu/6GoyjMUr/w3MO8Zbg4zoFZ36SPnjuEbun/MfWsGj7Bu+/o9Tmauuwu4rS9eh+vCD/uOQ9cj5j104Y0RcLGRbaSRhCIi4CLgo5bZlrpZRxIC1nJN0kE0ialYfkHkXtekpLJPd9zHiDZTNbV8pc9O9Tyc5y9NJrlHum8F4EeFxw9L70uCGeiz/VAGBN9vawsr+PKPIoYx807q/RRbXAZO6zJvUshWYGTdzlFIrCoC8h9kNUeJP6vz728xwo/gW45uo8i7QhnAl9ZNpQGHH0W/XnzvVTZXLPCIw4TecT5mspnAk0++kT67axTa8+0NEXDJe9+IuW3JwJl0p1lakt79sb2aHWWBFUvSyfUHM67xDKpRjhb3JVF30fSmcgjPlv4vfXsNXLP8bgcnOsIvy8u8uA/vBTUxc3JPz9ub4wixnHzzip9VBtcZkqF3CcouaKR2DDLvZ/083096a8Rep3cIy4rBpy9l4S6lwHMSOjp052hsMU9QZFLVoKAMQIuCto484wjCrnPGHApzgkBnfBmee0n9yDg/BGtTu5VnUC+vzSU1tz6bS+ObrnXyTu79ihXnYNPoQUr5iprfpDl3gvzkXu23DMe7UPua5tXDZ30iNqlVl8W84JRk+kl9LKgDa1U76vfqZbz4N1tsWzmtaPOVEtqXjBqFC3cWiF9zXyOF9aRo8i9y0ypNbkv0wAVBrJruC3JTD3+sqF0XO+/U1Z5vax6El9vuffIeh05rxH14BeGquV+8g1fFMu9a+eRdKVHwEVBFxUUGQeKKhmpl44AE9isz35ru0e0e3anhc89SDsbythy37vvEZ6Vnkk4yDfHO7bvEfU70fbsQsszAOzWU0fYNXKv73aLPLlcvX5ZY4Xy4h5RxJjzBrnGmvY4+Brknte1Z/LNZ8TDc07D6bCj7ebFt9G1E29VLwMvzJqizpWtm9QLgx6vlr72YoDnQUdUG1yMKdbkvkwDVBDAccJ0Al2YaxB8bZtrdqlhv3n8wDmsnvTXCD3aouL3+hxNWXZjzZ++o0O5/dR87qv++ewKxGngp18YPDbPiCNiSSsIOCPgoqCdC0s5oYwDKQMs2SeCQNeLCykPsupSZh0hz8k9xqXeSaSJK+woYsx561Z0tTnVA8/WkXcm9di1lje0wpnJP/JBujsXP0ePTryVFvzuhzR99fN05wPP9RRRmxlAOrwEYBZg2qRHaEvnfPrRA89yVQLPUW1wGTusyb1LIYEtKWFgkQis1CXcFaiEXU+a1AIIlEl3lqktLdB1pIqOCOz90zNC7gv+otC1ZomjdGvJoogxx2JrPe75umZZr4Ypq/zvxlSJOSfUzyDrE69URB1EH9ds2ddfHvCCoMg9kXLNwU64cNOJOqLa4DJTKuQ+Cm3LZ0Kowwl1kbCxFKtEFwQSQcBFQSdScAqZCLlPAVTJMnEE9m97o2XIfRIW8FbMY9+mtbHlHkWMa5nXLOvsLx9E7nWfe1jgmbxzPiDuKkz55ld96/EMebHFH2Se06lZgh4ff84j6BzVBpeZUmtyX6YBKgjgOGFFIrBSl/AXjTgylrSCgCsCLgratay008k4kDbCkn9SCLSS9b4VyXmcOu9du5TowP7Yoo4ixrEzj5mB/gIRlVVUG1yMKdbkvkwDVBTQLs+EUIcT6iJh4yJbSSMIxEXARUHHLTOt9DIOpIWs5JsGAt1b1lPX6ifEil8QF52ulxeRstgnQOzRX6KIcRr9yTRPuP94q/A0SRTVBpexw5rcuxTSpE2leVwkAit1CX/RKE2Hk4a0FAJl0p1laktLdSKpbNsjsGvXrrbHwA9AFDH2xy3qfVQbXGZKhdwnKGkh1OGEukjYJChyyUoQMEbARUEbZ55xRCH3GQMuxQkCPQgMGTKEtm/fLnhoCEQRYy1aoS+j2uAyU2pN7ss0QCUt6cqW+wq15GORCHWR6pK03CU/QcAEARcFbZJvHnFkHMgDdSmz3RFYvHgx9enTh8aPH9/uUNS1P4oY10Us8E1UG1yMKdbkvkwDVNJyrrwzT8j95oJb7ztnJS12yU8QMELARUEbZZxDJBkHcgBdimx7BAYNGqTIfd++fcV6r/WGKGKsRSv0ZVQbXMYOa3LvUkihEU2ycu89L+S+4OSedsRfUzfJLiN5tQ8CZdKdZWpL+/RAaWkrIwCr/fXXX08DBgyg6dOn06RJk1q5OYnWPYoYJ1pQiplFtcFlplTIfZLC2r+bxDWn2JZ72rstSYlLXoKAMQIuCto484wjCrnPGHApru0ReOmllxQGJ598Mm3atIk2bNjQ9pgwAFHEmOMU/RzVBpeZUmtyX6YBKhVhf7hBCH5Brff0/h9TEblkKgiYIOCioE3yzSOOjAN5oC5lCgJETO4FixoCUcS4FqvYV1FtcDGmWJP7Mg1QqYl633sE949K5yxx08mb6OMj53efILHYp9bbJWNDBFwUtGHWmUeTcSBzyKVAQUAhIOS+sSNEEePG2MUMiWqDy9hhTe5dCikmlFIrEwReffVVknV1TZCSOIJANAJl0p1JtgUuBvAlhq6RQxAQBKIREHLfiE8UMW6MXcyQqDa4zJQKuS+mnAtTq/POO4+WL19emPpIRQSBVkXARUEXta1JkHv4EF922WXUv39/9XGgrN1dVGlLvYqEANa5lzG5XiJRxLg+ZnHvotrgMlNqTe7LNEAVV8zFqZmQ++LIQmrS2gi4KOiitjiJceCpp56iBx98kLq6uoraTKmXIFA4BGRMbhRJFDFujF3MkKg2uBhTrMl9mQaoYoq4WLUSRVIseUht0kWAl5tLwzLmoqDTba177rbjAKzyU6dOpWHDhrkXKikFAUGAZExu7ARRxLgxdjFDotrgMnZYk3uXQooJpdTKBAFRJCYoSZyyIIDl5e677z7CZjFYTxpkP6mjTLrTtC2wyo8dO1a53uAsy/cl1Zskn3ZFQMbkRslHEePG2MUMiWqDy0ypkPtiyrkwtRJFUhhRSEUyRgAfeup+4HAhWbhwobMbiYuCzrjJxsWZkntkCMzko3xjaCWiIBCJgIzJjfBEEePG2MUMiWqD7UwpWmhN7ss0QBVTxMWqlSgSB3kc2Eu0ayVVtv9GlkJNcynUd+YR7XyK6MAHDkKyTzJnzhw1JY6t30eNGlVH/E1yc1HQJvnmESdoHICVHhidfvrpitDnUS8pUxAIRKCyn9Q+J2qJ6tktrZfn3DOS3l41uTXbgOXBsTT17leIME4mdEQR44SKSD2bqDbYGFO4otbkvkwDFIMg53AEhNyHYxP45MBeqmx9uDUVb5pEPM28O2cR7d8dKI40AmGFBonlg0ltM+u0i4LmMop29o8D+DgWbkx46eGdNItWZ6lPayKA/nTTTTfRwIEDG/6whCqeRfa57h1U2TZHdHKaOtgl787ZRHu3JNIpo4hxIgVkkElUG1zGDmty71JIBrhIESkhIOTeEtj3npdBxEXRx0yDTePyOuC6A1ILiz6WdoQbStBRJt2JtsBtiQ+82Oj3HN4q5wPv76Dujato79qltGflPPlLEYOuNUuoe8NKOvDe1tDu0dnZSSNHjqTDDz+cjjrqKPXdxtKlS4n/QOZxDXKPbzkQB3FHjBhB69atq+Vb2S/Glpi6tZJmehhmEph5jSLGtc5Q7KuoNgTNlDZrjZD7Zgi1+XMh93YdoPLOPCH3aQ4GYXljkMj5gAUfxB6++XyA+DPp9StoxC/6gTr664mPjD993LeVpb7ZbEXR24f6dW9ZL2Q+RTIf9bK0763VdV1k586ditR/9rOfpcmTJxNIvumBuNOmTaMjjzxS5YG84P6RKjkN00cSbow7vfeMqYhD40UR49BEBXsQ1Qb/TKlJ1a3JvX+AMilE4rQuAvCflZ0jzeUnA8kMY6WeNFbmUsouJtx3sEkTVt85Zvh4j+ijBliVh4l/djWyK2n8+PF1CTAzgU10Jt7zUF14q94c2P2OEPuciD2T/v073lbdB9b4Y489VpH6PXv2xOpSeDHAC8K7f2pt//qkdWQh89tWc3F0FfoJ5/+CQI5b+Q9tCDtcZn2tyb3LG0RYhSW8+AjIVtd2Miqk8mwTK5KdpLKNDZ/0//e0fyec+cBa+kX+fYHYY116/eWerfhlGQe6X39eyH3O5B6uUDNnzlTEvs6lhn8ojmdY7nf/eVpuxgYZC8wNPY4ibptkmZB7l0LaRgIlbGiRyUcR4RaFbq7Qk8aqiP1Br5Nfd8IK3qdPn0ISfLgWoW74092MuD3+tnB4q527Vj8h5D5ncv+XFfNo6NChFNdaH9T3ktYxkl86+j1IdhJWQ8DFY8bacl8WpV6DTa6CEODVB5jcy+YzQSg1honyT0f5m+DaKI1ihegKGr8vuLyBPOO7Fr/7S541h6sQLPaoF1bAgQ7QVwdC3coyDrBriJxz/og4phtO2O/FRG9InPx0NmMfJj8JryLgMlNqTe71AUqALy8CIB+wLGJwB/GAf7AczRFgZRV9nkC39P8YdXR0eH+9eh9Pizbf4ziFXJ/fiAemO+VzYNY36aCjz6I/b77XLP2yoXRcr95eG1zLjcbKfOBpLh23GC9v2k0Tfr+R5q9+hx5f9y597oanFbkdNvtVum/5FnUNstvsHuk4/v+84E66YOYK794kfbP8836OAQjjA9qCP5N7YIt4qPv0ZzbRzg/3uQnJMZWQ+pxJfc+sgaP4miZLSrdIPuZ62AWrpoJs8wjQp7aHNbl3eYOwrZTELwYC+AgQlkUQfPa1LUbNilsLO8U2gSYffWIMUl9VuCDlJ4z7sRkhT9L/ftlQGuC9DIyh4QefELstdvjVDzhJ9oo9+w4oogqyeuRPnqGr5v9JkfvO3Xtp4w63j/1cFHSSbUoyr6TGAZB5YIw/vDz96sWt9MlrnlRk3xVnm3YKuRdyH0fnSNp6HeyKh81vth3juowd1uTepZB2FEYZ2owl70DuxWpvLk075VZP7kHSP/K9E2l474Pp4nNPoo+eO8Sz8P/1uZd75H3huYdVreW9PkdTl91FYRZ3jsezAnr+HT1pUV+Eq/yXDaWv9ZTDafV4HMb5VerIfa0tejmw5nM6zFTwSwjC9OsRs35KtxzdR7WH68TPTTE1l1J0TFiQYWX/3qw/Rke0fFom3ZlmW/AChZcpzHI8/9/vEV600jqE3Au5N9UvEi8ZIh+EY1q/77LkO+7xDdZNEXJvDZlBgv3dau3kvX96hrpeXCgfbOXxwdaqBbT3tadp36a1VOl2s7QaSLohSpDiCg+rEWLEASlm4ozrGrGe4BFfj4j7LfA9LjL8EoB4HjnuIe3+/Pn5wnO/UCXVWjzOh+selF8dudeIvr+cWl61dlQ2V9v+21mnevWslaHHMx9QGoRhGQASCUvy1b99neAukvQB63RZjjTJvY4RXrBOmPJCau46Qu6F3LOOk7O5rk0aK/03L9eNCGRC7ss0QDVCGD8Eu+51vbxICH0ehD6kTLxg8VrKcSS8Y/deevn1nXT/ExvV39V3r6HR016p+5s0Y6FnYW+uABvJPRNhEF2+Rj7rbziKYAXnc1jeTJART/fpR171eVbdaB5bdl7NtaaH3AeVEZQfyL3ncx80E6DVm+tbl7f2QlB9XsUDdeIZBE5nco4jWxB7uJq4KFHTcpNyZTEtL814WY4DsOJ/+66XU2mOkHsh9ya6ReKkS/xT+XGXKFMXY4q15b5MA1TSsoeFWIh9MQaLhkF71QKq7HGzxepEmAAAIABJREFUxi58dgsNm7CSzhn3vCLyTO5XrNuhyD4IP/91vnp/YuS+9nFrzZINcqyTfgw668edWufOgueIx5Z5Hpjqyf0M5S4zoP/fq5cGFUcj9w1lBORXZ7nXZhL0cvRrWOtrrjdVIj/5hi/W1RP1rquTli+3I+wc5/cMC/F3ZtTvlhknv6C0Lgo6KJ8ihOUxDkz5rzcTd9Fp0BMhBoKs4304dwQdo32sPnzKI/ThlDPooH5Dac2t36aPnnl1qQxIafXpMF2Rb/gY5XrJxhe/ns63bumS+LC2pSX/suTrMnZYk3uXQsoCcLN2wAUk60FAyjN/mcCGNbbH71ZuJVjo39r2gVHSMOUVHB5tue/d/+88y7g+AHg+7J61vLZaDrv1KCKtrcgDq3890a53A1L16yH3uI4qA4OSWhmnwfJeHRj85Xh5BfrcV+uu8lNEfgwN9z7StRtojAQUEAlWe6yCk6ZvN4otk+7Moy14+fqPR14LkKB7UFH1J8j9sf2G0tqVcxvGFJB8Re5XjKOLDj6FFqxojFPUdoXVy12C0SmD9a6dXkk2jyqxr+k717q4LGDgksa1fnbpoqUoT11mlIXcJ9hv4OMdprwk3JyEp4UVZlVsD7bSm6ZLaiDwE+Sk8i16PkEzDqZ1NpWRHg8+9lgNJ21ijzKzdGXR25jGdR7kHjLCh86vbftLYk1KS9fEzTeI3CPsuDOvURb8QwYPpZv7/k3Ph/V96Ofz5tC8wR9X970OqhJ+vAQcMvhUuqj3wQTLf9w6pZk+MYH6MjLVHVnFi9JvQUYQjAP6wgpVI0/NmMPfZXFaNu7gng1CuFYLFrCxxzMK2RHwNDHyiU1ufQhkQu7LNED58It9u2fVgkIr0DSVc6vkbSvktMg96sHKkuvkv2fXmLDn/vitfo+1/+GKxIfeHr6OOnM6mzP8ufGXxZGHK0ta7cprHMDymEkukVlUvVXnltOrSt51cu+33IPIf+2q29T4o8djol/UdnK90uqnUfoij2cg90FW+3pjTs19EeFM4OvdIGtWeMRhIo841e+VqrPC+oIFlc21NHm0ParMtORflnxdjCnWlvsyDVBJC54VlZzzt9KHycBW5mmR+/0f+6RXFVzLfTQeUQMDP/MAtbiAm0eSZDGqaBcFHZVfns/yHAe+9LPnE7Peh+mJvMNB0P1uOTpp95P7NVd+pe4Dejz33HcK8h1BFKZp9WXWDUU5h1nu/aSf7+tJv07Oa9eIy/77OLNRqP5lAFb6Wpqi4MH1SEv+ZcnXZeywJvcuhZQF4GbtiFJe8qwYhL+ZDP3P0yL3UGpM6lnByX31JScMDw4PO/tl1+wepD5JF49m5ZVJd+bZFsy0YMfgJI6i6mUXcs+We26TkPva7GiYzsg8HCuM9f47bwEELr+exNdb7j2yXkfOa0Q9+IUhaMGCWhoutyjnJH7LZc4jE7ecPJV60YXHSlXOxSDyQXKw7UPW5L5ztuduUxTF2S71sJUt1rN3UZq25XD8vFxZuPwkz3mOA9jYCrJL4gjSEUUIMyL3K+dV/ezhtjP39poPfkeH8rEXcl9Aco9FA/QlhH2LDLAFnt1s6kl/PTlXfva9PkdTlt3obXbIix3UfO7rFyzgNNj8sEjjQhK/5TLn4TJOWVvuyzRAJd0ZijAoSB2iXyxsZW5L7mnHkkIpzSIp8FTr8s48W9GqpS/nr34nPN3+brUJ2t51T8q3NCm6duxdu5S6N64y3mwOH9YmNQ6JvozWl1nhE/4jjPckVZ1jsUyv1CP64914Ui5/ahdjijW5z9PXsugizEoRSjnuA5JtH7Im9907qLLlPiH4GQ981PW2rWiVa0foTrT7u6lr9RNC6lMk9X49hs3mKl1mS866DHZBHcRfB7l3161xsAuSTRJhQqqjSXVR8ElC1mXOw0XfWZN7l0LKDLretjjKTdJmM6jo8jK5tib3yHTvNqps/40Q/CwI/taHyYXYQ0xRU5373lotxD5DYs/6z3QviqTGIS5Xztno3zCcTXSxS5yikFepR/RLhots2ylN1FgVhoOQ+zBkHMLDFJeE5ztw6PjbitWJ3NsWIvFzQSCKIMJVRO83cp3NbxjWe5MjqRlkkWs2cm2Gs4nMXeIIqY4m1UXBx0W27ZQmE3KflK9jGQXTTIEl8nzFnQ0fTrnki4+tsJV50A6IQfnhAy//duhB8YoeZtvvhNzbItY68aPIfdH7cZnrZ9KDkhqHyoxjK7XNROYucYpCXqUe0S8ZLrJtpzRRY1UYDtaW+6QsJmEVauXwLJQpSLl/ybNMytXXXW7hbc9t+9e9j71BIPhylA+BKGtIFr8pKSPYamzS01wGu6B8MVMgcgiWQ5a4BMkmiTAh1dGkuij4JCHrMufhou+syb1LIWUGXW9bFsowzOIetfV4R88Oh6gfL4/GG6IgjNPq8TiMdzisW5ptxZ00sd9ptGDF3J6t0GtbnHM6LMnFLyEI06+HT7mNbu73j2rLdK4TP08bQ11e/utX/3sXvfz6TvrV79+kaY++TpfesoqumPoSvf/hPn9UuS8BAkLu8yd1Qb93k66V1Di090/PCLnP4dsKXe5v/f5BE5E7xZHFDYTcO3WcgiWKGqvCqpoauT979P305e/8vKX/0AabQ1dYaV6zi4zapbCHsDM5ZtIOEu8Rc83aP29wP0Wq9XicD9dZnx3w4mmWe4Tx7on+cry84D7EBL7nZWD+rf/ikXyvDD1eBoMM5Dl62it02ugnQ/9A6EHuX9/0vo34JW6LIRBFEPm3IOfsXwBMulFSM8j7t70h5D4DvRv1O3rk9htp2rRpJmK3jlN5Z54sbJDFwgZxyuicZS3XdkuQCbk39XUEsW/1w7YNUQosjWdMkJtuPd7jRvPo3ItrpHzuCDruzGsIaYdPeaRugAvMT/e5D5gJQPv8een3+guBwqKH8KNOqEca+ATliT65dUeXstDDSq//wWIPF5yr715D59+4Qv2JS06r/4rD6y/kPnviHvSb9IeFS6z2xHQcqqUIvxLrfX79QH24/sFfaMSIEeovXEpuT9Y+2xqW66K4x+RRD+wNI0c0AlFjVVhKa8u9qcXElhiHVTDPcNs2+AepNO7XXPmtOncWWMpBotlyz2WC+HtW9B7Xm2P7HuERebbII60eD+kD89Os9VwGzno5+vUe3SLfQ+QnjupXV0+Uo9dJzzeta5v+hJeAG2aupYXPbjFPdmAv0a6VshRmHEuOaVpsXLXzKaIDZmuj+4UYZQ1Jq/81yxe/S3y4rv+eg36PzfLh5/hN2nw4z+nyPPvlFHTvMtgF5cNh3VvWy74GGVrwu15epDaIowP7WQTKen/sscfSc88954W5XnR2dtK//du/0ehRl9CBzTPFem+qU3OIh6Wj5YhGwEXfWZN700JsiXF00/J5atuGTAZEbbUcdrtRRLrv3xBvXQ1LfB3R7iHhXnzc91juUWfPT54t8loZyFPlZ0Du6/IK8rnvydebKcCMwpfMV+xJAl/bnmS1Ws6BvVTZ+rAMJFkPEJjW3b/bVrSR69wn0ddc8lC/y8Gn0kUHHeG9xMch9y51yDuNiSBNxyGTvCROcRAAsQfBP+ecc2jdunXWFdu4cSONHDmSPvvZz9K8eT27Vn+4QTYWzFonG5ZH7//RWsbtmCDKEBWGh5D7MGSI1PcCEY8bHmUxKKJQLocrUKZ7bktaZ8bM9GxF7t97Xoi9oVJPevrXZWo3iiCm1f+a5Qtyj+9Z1tz6bW9GzSP3eBnufbB6iecXdbzEH4KXAYTj5XzudV4cfimH21s13lBvGV1vZkB7ke/d9xS6qN+p6kP5ZvVM87nJb9N0BtkkL4lTPARmz55NRx55pPoDWV+6dGko2ccLwU033UQDBw5UpH7y5Mm0Z8+e+kbte4+gIyqds0RH56SjPZ2PHdzffUJt9lgvJLkLQyATcm/q62hr9Q5rVJ7htm1Ic8DjvPd/7JMeJLgu2z23M62zB57hhQ25l4+3cvRvdfgoq8jkfu2Kad4H6R6519wmEMYzdDrR9657XhL+OPcS9U0LyD2vhsUvENjjQp/hQ/gxf3VKS5B703HI8Gcu0QqKAKz3IOsg7iD7PDutn2HpHzt2rHoBKGgzEq3Wrl27Es1PMis+AlFjVVjtrS33phYTW2IcVsE8w23bkBYh9efLpJ7Dy3bP7UrjbNufrMh93haRNi/fVrZR1pA0+p5JnnXEu4egzx91lPLBV+S7V2+P4DC5529m8Nz7OL3H5U0n9xxvT88H9ljKll8SVN20JW5N6ppWHBM5ugx2JvlKHEGg6AiMHz+eFi9eXPRqSv0SRMBF31mTe9NCbIlxgjgklpVtG9Ia7CTf5FZzsO0cQu5ztMZbvqzYyrbo5B6/e5BvfHQONxqdiOM7maTIPZP+VrLcm45Dtn1C4gsCRUZg+/bt1LdvXxoyZEiRqyl1SxiBqLEqrKi2IPeVV35B09ccCMMgNFzIfXKkuigvKKHCDnkg5L685D6KIObVX3XLvapDj589yL1yrenoUJZ7XmXK71Zja7nXP8YXn/sQJSDBgkBBELjsssuoT58+6u/VV18tSK2kGmkjkAm5Ny3ElhinCc7mxbfRwq0V6yJs25AXIZByzV9CbDuBkHsh9+3y+8KLQhGWzTT5jYrPvQlKEqdMCIDMg9wPGjSIpk6dqr4zKFP7pC3hCEQZosJSWVvu0yb3lc75dO2oM+n8kYPpwgeeVfV+4f7RHjnf/LsxygoPazzi4O+CUZPpJRVzMz1681kqbOikR6izJ2zBrDk912EwBIfbknu1IYf20Vu7kIKWaeeqBcGCjghNjdwvG0oDjj6L/rz53p7VGybQLUf3oanL7nJYzWEC3dL/Y54v9ogHpjvkMYMOzPomHVRXpybEftlQOk7zAXct11tFwdINx58uQoyBj6J0Wcv06Zj6ps6Pn5fCjZlnXOwCheULdBnsfFnIrSDQUghs2LBB1fe8886j5cuX06ZNm0g+rm0pETpX1kXfWZN700JsiTG3msk73+MMIn/dkreIaDM9OvFWReQRxuSf0+BcjUfEYVRZSQuWvK1nZ3xt24bujau8ZSrjDnCS3twab4rV3nVPGsueI+ZD7sfQ8INPoEWb76HKZv06mGyDlJ8w7sdOhN5PkK3u615QmtfTKm8Hos8yMz0LuU/+N2b6W4yKZyI/03EoMi9sfrbzKdmbwuG35vxb3vow0f9dKssgRnbM6IdM7qNjydMyIRA1VoW1s3DkHmT8jh7LvWd9r6ykaZMeoS2d8+lHPdb8GuGvEXndws8NRjwXf3uktyX3lQ920p5VC4Tg52z5CyMO+3fYv+RlTe6nLLuxzgrvLfnW63M0+Yav00fPHeI9/+tzL1eEPszivvDcw5Q1v1fv49WLAuJ95Hsn0nC1JvrnvFkChKu8lg2lr/XkyWk7etXicRjnV6kj9xNo8tEnNpQDaz6nQ1v4JQRh+vWIWT+tm7lweWHh37zpOYogYgfNsH4k4em+FJjIz3TVttC89u+WNc+zJPUBZdFei52/QwXZfg+E3LefzDMh96aF2BLjIHHpZB3X02ZN8dxzgsh9kOX+hVlTelx2gkqIDnNpQ/fmdUIKCkjuu998OVrYIU9/9fs3adqjr4c8rQ+2smb5XFoUifeItG4Fr12D8NbIts+Npyc/nfAzeQYJB2lHeibmOnleeO4XqkRfi8f5cJv0+JxfHbnXiL6/nFpeep2rLwO/nXWqR/JrZejxgmcruF76uV4aze+iyH3368/L7ziH3zFcG02O2D73/3dp9jNdAQRX779td/1Ozw6yJgKXOB4CQu49KNrmImqsCgPB2nKfNrkHQWdfena7QeXhi/8jz49ed9WpWe6V247uc1/ZTK7+9ijThdwj3YH3thJcQMTCl66FzwRfkIX9298M6/9Nw9//cB+NnvYKDZuwkqbM+RPBkv/y6zvV39599SswWQ3OGhmuptMJbY3Q6245IL81ojyD1t9wFPn93Jkg45ln9e/oUOnq01fLeGzZeTXf/x5yH5RvUH4g957PvfdiUvXd53r686q7D8AA1n/UiWcQbDBtKkxfhChdJrNw+fx2oTtNDpfBTs9Xdio1f2m2+Q3axtVlItdmCJx88snK394stsQqAwIu+s6a3JsW4kqMwwShW+rD4iQdnnQbkq5fFvm99NJL1NXVlUVRhS7jrW0f0MJntyhyD7KPv2+PfZpOG/1k3d/oKYvMLIIBxLb2QW04ua998Fp7GVg/7tQGFxuQaM9y32MxrCf3M5S7zID+f197QdDIPZNzHqyD8quz3GtWSb0c/bqyuVZnXIPIT77hi3X1RDl1ddLy5bqEnW07UBS5R14H3t8hL+kZWe+7Vj+hjCKmMjQdh8LyC+tDEp4t6Q+Tj4SHIyDkPhybsj5pNlYFtbslyD2s+bUVcYKakU6YkHsiUSTmfcuKGESS+yrxZhcc5bPe43Pfu//fedbyGnmvrZbDbjeKSPtW0Kkn2lULey3+DPLcbTb3lI811T2LfK0MzAioGYOGNlSJgb+caJ/7ar61GYgxNNxmxR6N/JtLqhozLkG0Lc9FQduWkVX8rLHztyuuz73Vb1XrY5IuWfLvl6vcN0dAxuTmGJUthsvYYU3uTQspAzEuQxvidnJRJOYIug78KEFPG3bPpDnsOefRys9huW9Wf26n/6wSWvzLmqCa6k6LJuQWNe+2xPW59/cduU+WtJvimVsHbuGCZUxuYeE5Vt1lrGorcm+7co6Qe7Hc2/wWTQc0xMPB5/0f+6TRPcg9DtP4tvnnHR9r9Ye1D3Vr9qcSW/yLa/21KEpFdVHQtmVkFT9vch8Xy2Z9Kf7z+pkuzHbVzZIZ9Of6OtTnV5vpav670POBDqm59tml1fNJ6jqr/kr7u6l7y3ra+6dnqOvFhS39PdzAAcfQhkUzWq8NqxbQ3teepn2b1lKle09moi9DQS76zprcmxZSRGJsu1NtEduQdUcVK4E54jYDHhN0nJFO7qsvOGF4mGBrLqlqzLjWX9vyTHWnbb55xM+7LXHLN+lPycSpLREbJz+Q8pobXv6kPE5b9LTou5N+tV59w8TfMvH53sfeUN84rVi3g7bucP/uCx9pl2lp2+UPTqH3nv1165F77fsdvGC5LE2dh64rQpkuxpRCkHt9V9oLRo1Sy13qYbxqjr40Jm9SBWs8r65T88tPZqdaIfdiubf5YeuDlsk1E1mOK/fVF50wPDg87GwjK8SNSxBty3NR0LZlZBU/a+z87Yo76xLWh5IPryf3IOm818TF554UuG8F6uB9p9LzzUuYxZ3j8ayAnn/texltBauej+aDytDDOL/k8ah/MYFcQdx5BTL9jGWIsTrZ1XevofNvXKH+cG9zwEJcJmJvskJcy8RZtYAqe3bbiLNt47qMHdbk3rQQG2Jc2bqJOnvExqSdz7o0ayvmZLNTrU0b9HqW6XrQoEGEFXPkaI5ApXN2U9eRtAfLds6/uYTqY2RNUE11Z30ti3mXd1vizrpk9ztpJPdMnEHEawS8tpIUwv2rVan65rGXhbX7UD15b4azTe/GS8ANM9eqVctM08EFpGXIrmbZbpc6Yz8ROZoj4DJWFYLc6+vTwwqvdpQtwE61Qu6JZMOM5j88L8aOJULuUyYDoWTBYUOcuNZfT+6GFy4K2jDrzKPlTe7jYhnajxLvv43knom7n8TjY3L40vM5rI5IBxcdxEt9L4vE8agn/7Yd12bHcOQNH+92Icqt2E7MqsjRHAEXfWdN7k0LsSHGurvNC/efXSX3Wnvrn2e3Uy3asH3nX9SfVp22uhRybyHu7h1U2XKfEPyUCUEQ6aGuty0EVY0a1/prW6Cp7rTNN4/4ebclbvlBfSidsGhyX/u4tWa5B2nnFwCuU257WaT8W7btu7bkfs+qBULuCz4jYNsH2jG+izGlEORe95ufNmsKXbfkLYJbDvvSs889hJrlTrUg98tefIP+1w9m0oy5y6mre1/b9Ssh95Yi37uNKtt/IwQ/ZVLApKey9WFyIfaQalyCaNkzyEVB25aRVfyssfO3K+6si9d/Uu+n0eQ+eN+KRp97fd8KduvRw3jvCf9sAO5r8R32skgZH79cm91bk/uCE9tWtLYnXedmMpfn5DR2WJN70wHKxnJfVOFxG3b/pYum/vJpRfL/sPzPRa1uKvUScp8KrJJpARCIJKj7u9WSbXvXPSmWv5QJ0t61S6l74yqr5fHizrpkR+6rbijo7nqZuNeJeNBzf/wi3et1iXNtqwaE3M8rnT6y7QPtGD9yrAoBpBDknpcBRB1xnfZ9CBYNwUzu+cHmbbto1IT59O/XP0SvvfEOB5f6LOS+1OJt68aFWn/3d1PX6idKN4gmbXFLOj8sj1fp+sCoT7oMdnrGcQipaVqUh7g4eEzz38P9Juq5P36e9yg76T/VeIt/Qu6F3Ft0l9JEddF31uTetBA/MW6GchaknhVss7rw87A2rPzjW3T26Ptp/F1LSu+PP3bsWJozZw5DImdBoDQIhFl/9721Woh9ytb6sBcD09UzTMehsM6aNEkNyo/HG5zxvNXvg9oYNyxMPmHhQu6F3If1jTKHm3rM6BgUhtzrlSrKdRi55/r9+vGXS++PL+SepS3nsiEQRhDhJhJGPiU8XXIB673JETrrYpIYFvWMPnxnYs8kuNXvuR1JnQ3F5UUTcp/u7y8P/eYJVy5CEciE3JsW0owYh7aiQA9M2qD74+Pj27IdQu7LJlFpDyMQRu7zGOCkzBppYflEncNmXaLS6M8q7z6WuItJUoS3bfLpnK2LxOhayH3td1IWnWEk+DaPFDZWRcFibbkXch8MJ/zx/+Onc9TfG5t2BEdqwVAh9y0oNKmyEQJh1t+yDJqt2g4T4bkMdnX5dr0t5D4FH3qbFxPa/UqdSExuhNwLuTfpJ2WL46LvrMm9aSEmVm9986qhkx5Ru9Tqy2JeMGoyqb1Rgza0UtKr36mW8+DdbbFs5rWjzlRLal4wahQt3Fohfc18jhfWEczaUJ+al86cOHMpwarf6oeQ+1aXoNQ/DIEw62+rkuKy1DtMXnq46Tikp2m4/mA9VTpnCcnPmuRvuY9ciD3kVxpyv+JOurnv33ibkA2f8oiTK+CHU86gg/oNpbUr5zqlL4LOaPhdSkADAqZGdT1hruQe5Bpr2uPga5B7XteeyTefEQ/POQ2nw462mxffRtdOvFW9DLwwa4o6V7ZuUi8Merxa+tqLAZ4HHS7knvP55W9W0bcuvZtwbuXj+uuvpwcffLCVmyB1FwQCEQgjiEUY8Nq5DoHC8gWGzbr4osltyRBYsW4HXXrLKlr64jbasXtv09YV9XcEUv61q25rWUKeJK5NhSgRWm+de92KrjaneuDZOvLOpB671vKGVjgz+YfMke7Oxc/RoxNvpQW/+yFNX/083fnAcz3dYTM9evNZXlq8BFBlJU2b9Aht6ZxPP3rg2chuE4fcI2NY7mHBxyZYreaP39VVnXWYOnUq4Q/Hrl27IvGSh4JAKyHQCuT+w7kj6Jhevclv2XO12LmmS3Iwb5aXSR8Km3UxSStxWhuBl1/fSTc+sI7OGfc8nTb6SRo97RX1d+9jb3iWfbbwL523sJAEOux3OG/wx5U1v9dBp9CCFXMJ8Q4ZfCpd1Ptg6ujVh34+b45qD8I/eubVBP1w3JnXqDBOq8fjMM6v2W8vj+et3RuzqX3YWBVVurXl3nR6wIQYs7UeFeTrmmW9Gqas8r8bQ4qYB7UEZH3ilYqog+jjmi37+ssDXhA4D4RjJ1y46UQdJm2ISs/P4IPfav7427dvp0mTJilij/P48eMJYXIIAmVBIMz6m8cAF1YmBu9j+x5Bx+pT75jS7/ePdNzgiOn4FePoooOrBCEs76KGm/Qvl8HOJF+JU3wE9u47oCz3U+b8SZF6EHz8XTH1JY/oM+G/7a7i7lfBL+4g6fgtgrCzNZ9JO8KYmOvP5w3up4i+Ho/z4d+1Hp/j8bMinYvf4/KvoYu+syb3poWYEeOaZZ395YPIPaztd/T4zsNyz+SdIQdxV2EqXtW3Hs+QF1v8QeY5nZol6PHx5zyCzmZtCEoZHNZq/vgg9H379lV/uJZDECgTAmHW3yINfGpQHjxUkXnPajd3BA278iK66Es1cl9vobuj5s/bqw9NHHW6Z/1DuihLXxHabtLHTMchk7wkTusgsHVHFw2bsFJZ7hc+u4VgxY86itCfm9WBSfiaK7/i+eB3dHRULfM9FnqVR88L+6NzL/Ze9pm0I61/di8ov2Z1yeN5lPzkWRUBU6O6jlfO5F6vSnbX+gtEVKlJk3suC374cNXBOvlFPmCpZ3IvVvsiS0rq5oJAGEHMY4ALK5MHbyYAiKesdnOv88i9/ozj79Es93juWf96pvER5rf0hdUh63ATWYbNupik9eLs3UaVd5+gSuds+ag2q49q8QHzu48Rdb3ticHmgt1tTNNk3XdNy1tz5bcaXGxAxtlyz/n4f6d4icdMHhN5/r0jrf/3HJQf51uks6ks2zleJuTetJC0iHFcAcP9x1uFp0lmabZh+86/qB1usdPta2+806Qm+T2GxV6s9vnhLyWnh0Arkfs9K+6kiWdeSGtXjKNh8LEFee+x3Ada6Hzkngd+nQwwQSjSQI+6mBxhsy4maVUcEPusCK2UE4g1fbDeWFwcsSzkHr9nXi2HX7z1MFju8fv0k3v9RR2/Ff4945pn7zyfe60Mzq9ov3XT3zvLv13PYWNVFB7WlvtWJ/dRYPifOZP7yn6i9/9ItGNJy1uF3llzG+GvJQdCZSV6orrs2oHmKyv45S/35UYgzPpbpAFQH7xB4ocNPq1qtfORe7/Fz2+5DyL3HFak9poO9i6Dnd6bZROrGfnr9K0P6yIxui4NuV9ZvvXqXfWIkeDbPJKLvrMm96aFOBPjAgnRqQ3dO6iybU7+ilOsRfUywG6Ie7cY966XXnqO/cLTAAAgAElEQVSJbrrpJho4cGDD38iRIwlLhC5dutQ4P4lYPATCrL+ug1Qa6XRyr1vr669rVkDdQqcseT0+90zk9fwaLH0FIRwmPcV0HArLS9a3LwC53zwjTDyh4ULuy/dSECpseeAhYGpU9xIQkZB7HQ3ftTW5r+ynytaH60mlkOzi4NE5i+jABz4p1247OzsJxP3www+no446irCBFwg8/4Hw43ry5MmK3IP4I+6IESMIz8KOyp7d1P3my7R33ZOFXJYtDVKaVJ571y6l7o2r6MD7ye/6HEYQk6q75ONGRMJ+R3p42KyLHifquiVnIks4lkTJKOiZkHu331SRdVGQnCWsHoFMyL1pIdbEuL4thbizbsPuV4pDZEs4ECQxINN7zzT0rZ07d9LQoUMVUQdxB8k3PRB32rRp6mXgnHPOoY0bN9Yl3b/9TdqzaoGQ+gSswt2b19VhG/dGyH0xiYKJXMNmXUzSIk4SukTyiG/9N5UXxxNyX8zfbJyXB5atnMMRCBurwlM4WO6F3IfDqVZeEFJd7IFz25w6AS5atIiOPPJImjlzZl24y83s2bNVXiD7OGCxF2Kf7GB04L2tLqIJTBNm/Y0zUEna+PIOFJYv0GWw07MQYh6fmCeBoS4Tk2sh9/F/X0XTUSZyb/c4LvpO3HIieo2t5V78OIsxYDQbdFjk8Kk//fTTrSz1nDbsvGfPHuWmA/ee7g0rxWKfgMVeH4z2vvZ0GPTW4WHWX708uc6eTJgI0mWw0/NtpiNiP182lAYcfRb9efO9PcaOCXTL0X1o6rK7HIwfE+iW/h/z1kAf8cB0hzxm0IFZ36SD6uqUv77WZWJyLeQ++99j2jrQRO7tHsfUqK7jJOReR8N3bU3uxWrvNOjEHkgtcYeY8UEsfOrTOuDes/F3s4TcJ0zuu15cmJjIwghi18uLRG4Jy82GIJgIOGzWxSQt4qSucyLJ/RgafvAJtGjzPVTZrF8Hk22Q8hPG/Tj9Olvq0SQwNJUXx7Ml9/hmx6bvSdyMXx5WLWDRyjkCgUzIvWkhtsQ4ol25PbJtQxLKTvIIHuCSxAXEHn9pHzJQpDNQJCW3MHLf/frzQghyIvcgYyZH2KyLSVrESVKfBOYVQu6nLLuxzgqP1Y3UX6/P0eQbvk4fPXeI9/yvz71c1TPM4r7w3MNU2l69j1cvCoj3ke+dSMN7H0wdvT7nzRIgXOW1bCh9rSdPTqvH4zDOL7BdCb8AmMqL49mSe3yML3o4HT2cBK5YZEKO5giEjVVRKa0t90Luw+HMQhlKGfHJ/7HHHhsuxASfJKH8JI/GgSkpEYVZfysf7JRvJXIi96bfVLgMdnq/SV2PLhtKx/Xq7bnSMIGvuuXo1vraNUh4jWz73Hh68tMJv2fN7yHtSM/EHNf8fOG5X6gSfS0e58M46PEr2ksAP0/rrMvE5Prex94gEHzTQ37LjfqzSGPK/h1uOxWbyr8s8Vz0nTW5Ny3E1updRCHYtiEtBSj5xif0OoZRy1Ym2Q+LpETLVJekZBRl/cXSm7J0aXbEoGv1E2RK7CF/03EorK/o+iCV6xDLfTNyr5Pu9TccRX7/eibheOZZ/Ts6lGUez2rpqy8Njy07r+b730Pag/INyi8VXHyW/zD5IPzV/95FL7++k371+zdp2qOv06W3rKIrpr5E73+4LypZwzOsslUm/VeWtmB5aDnMEDA1quu5CbnX0fBdC7lPllRnMViYlOETc2q3ZVHCRWtHUgKLSxBt6+GioG3LyCp+1tj52xU26+KPF3ZvoidixXEk97UPXmuW+/XjTm1wsQEZZ8s817Oe3M8guNkM6P/3tRcEjdzXXgKqOj4oP843zTPkM3raK3Ta6Ccb/kDk8QzW+rlPbaLXN70fJs6m4XhxlJf17F7Wo8YMuN5hiWg5zBFwGTusyb1pIbbE2LyZ2cW0bUOaSlDyTu5FI6seFKXg5Jn7QJOU/LImqKa6M6n2pZlP3m2JmnUxaXfq+jSS3FeJN7vgKF/3Hp/73v3/znPnqZH32mo57HZT2VwLgwUfFn4/ucd9Lf4M0t1t2L+e6xCUX+oYOexQayJbiSMIlA0Bl7FKyH1ELxBynxyhzmKgMC0jQuSJPhIC707go7BLSkhxrb+29XBR0LZlZBU/b3IfF0tTXeEaD3LgtCyTZvdMzk3jN8svyeecV9JnbquczRHYtWuXeWSJWQoEXPSdNbk3LcSWGBdRArZtSFrxJZEfBozaVG88ss6DTxL1yjOPrPpaFEHN6tmHc0fQMdqHfcOnPEIfTjmDDuo3lNbc+m366JlXt5w/alLyi2v9ta2Hqe60zTeP+Hm3JW75aeuf/R/7pCcWXLf6fVp4eSDJhTECQ4YMoe3btxvHl4itj4CLMUXIfYTcy0Duk1TKQu4jOkvAo6wIfFQ5IPfH9htKa1fObSDxIPmK3K8YRxcdfAotWNEYJyrvvJ4FQO0UFJcg2hbqoqBty8gqftbY+dsVd9alsuU+z7KepI7U82JSz2Gtfs/tSPLsl6vcRyOwePFi6tOnD40fPz46ojwtFQIuY4c1uTctxJYYF1EStm1IUukllpe2/Jm+hnLVn7P20RbK08m755PZ0eF9uFV7XvX35I+yOC77dyIer7fsX+0hsXb5Vl2wyTervpYX+dXLDSL3CDvuzGuUBf+QwUPp5r5/07PWdh/6+bw5NG/wx6vrZx9UJfx4CThk8Kl0Ue+DCZZ/Pf88rpOSX9YE1VR3JtW+NPPJuy1xZ10q78xLndzb6KS2jNs5K80uWsq8Bw0apMh93759xXpfSgkHN8plrBJyH4ylCi0bufc+ntI+9gIR5w+3eD3kGomHG0/tBYDDQeaZtOvp+YMthDHRL+KgFSHyRB/lQXz9Zda55fSqkned3Pst9yDyX7vqNkXg9Xi9eoi+P/887pMSUlzrr209XBS0bRlZxc+b3MfG8v0/CrmPYSBJQq/Te89n1V1LUQ6s9th8ccCAATR9+nSaNGlSKdoljWiOgIu+syb3poXYEuPmzcs+hm0bklB4ieehWe7Z0l6/5Xnjesj+dZD5HqQdKzPU8plBeBa93nI8P//E8chwhYY8iK+/TBB0v1uOTtr95H7NlV+pkyeee+47OW1s5G9TUpogrvXXth6mutM23zzi592WRMrf/Qpl4Z6Thg5r9TzpvWeIKvvz6LotW+arr76q6n7yySfTpk2baMOGDS3bFqm4HQIuxpTUyP0J5/+CQI5b+Q9tsDkKqXCbkvvG9ZDZQl9tT6PlXl8TWb/m9tenF3LvJ6dZ3ruQe7bccz3LSu4jCeL+btq3aa2sjZ3BCx3Wve7euIoq3XuM1W3Wsy7GFZOIgkDKCDC5T7kYyb5ACGRC7l0KKRBGqVaFyW2hzgbkPsiNhv3oYZVntx2dtON5dRWe5ustFwoPsdxTg+V+5byqnz3cdubeXvPB7+hQPvZtR+73dxN2TOWXGzmns6SpH9euFxdSpesDIx2d9ayLUaUkkiCQAQJC7jMAuWBFRBqiQupqbbkXch+CpLaucdHIrNSnfvYgXILJPvGTF7lPhiQmJaUw6+++t1YLsc/AYh/0e+h+3cwP22WwS6rfSD6CQJ4ICLnPE/18ynbRd9bk3qWQfODIvlQh0fUkuqh4ZNUzgsiLhMUn+EnJL8z6CzcRkVN8OblgCOu9ySHjkAlKEqeMCAi5L6NUo9vkYlQXch+NqdXTopJZqVf9S4eVUGNEdiE3kqY5qYwhkrqkYQRRZNBcBmliVCekkJuwWZeQ6BIsCJQGASH3pRGlcUMyIfcuhRi3oMUjComuJ9FFxaOzszOTnpYmAWrnvJMSnpD7fEl8WB82kW/YrItJWokjCLQyAkLuW1l6bnUPG6uicrO23Au5D4ezqGRW6lX/0jFixIhwISb4JIy8SHg8UpmUiMKsvyKfePKJi5+JfF0GO5N8JY4gUHQEhNwXXULJ189F31mTe5dCkm9qMXMUEl1PoouKxznnnEOzZ89OvRPFJTmSPphkJiW4MOuv4B6Me1a4mMg3kXFo7zaqvPsEVTpny4ZWWW1o1TmLKu8+RtT1tomYJU4AAkLuA0ApeZCLUV3IfYKdQjZEaQ1yv2fPHho4cCAtXbo0QenXZ7Vx40ba8odfyoeZKay6Uo+0+10YQcyKxBqXs+LOuuVJsTxtkXYMNm6HYV8wkWjYrItJWhUHxD4rQivlBGJNH6w3FpdErCEg5L6GRbtcZULuXQppFwFU3pkXqMRkECkQ6e+cpbrjzp07FcGfPHly4t1z0aJFdOyxx9J7q/8g5N6Q0JkSRKxkk9TRMuSeMVxxJ03sdxotWDG31P3KRL5hsy4maREH1mPRyznr5a0Pm4pL4mkICLnXwGiTy7CxKqr51pZ7IfcRcL73vAwYBbdS0Y4lngBhwR85ciT927/9G8HSHvdAfmPHjqXTTz+d8NHu/h1vl5qEmRLyJON1b14XV0xe+jDrb5L1TTQvH7nH5mKHDD6VLup9MP37rdeqs9+qP2/wxwlhHdigbN4c1R85rKjWf09AERcug52eXQXuIQXXVe1QP10mcm2GgJB7M5zKFMtF31mTe5dCygRyZFv27yZxzcnZGtRkwKa92xpEOG/ePPrsZz9LQ4cOpXXr7MkjZgGuv/56lcdNN91Ul3/3xlVC8NnyHPO8d92TRAf21+Eb5ybM+psoIY/Z5rq6BJD7IIK+5sqvhO4sjBeCr111m+qTvFNxXRlJ1tcxLxOZxh2H2oE4t0IbTWSdSJz93dS9ZT3t/dMzhL0UitbnbeozcMAxtGHRjNZrw6oFtPe1p2nfprVU6d6TiFjbJRMXo7qQ+6R7x4cbhOA3Idh5DTr0/h8jpT1z5kw68sgj1R/IOnzyw5bNfO655wguPbD648UA8cPi7t/+JnWtWdJ6ytiRnNkMVCZxu1Y/oQaEJIk9OkIYQTSpUy5xAsj9R8+82iPqx/TqXbXSd3Qocs8kX68rwpQlH9b8jg7i9HqcvK8jf6Q9D8NmXUzSIk5eOkjKrTf+sLwm/Wo9jZ72SsPfvY+9Qfc/sZFWrNtBW3d0cXSr84H3tlLXy4tKo3+XPziF3nv21y3dHrxgYWZbDjMEMiH3LoWYVb9Esfa9R3D/kKnfekWey8C25T61IkaQxT6sx8F6D7KOj24PP/zwOjLExAg+9XDpgdUflns5Wg+BMpF7ncjD7Wb4lEcIYX7yjjC23OdN4sPKN+lJYbMuJmkRJxddVFCjR55YsLxA3F9+fWfD369+/6Yi91ffvYbOv3GF+gPZNz1gIS4TsQ/7zbRk+KoFVNmz21SUbR0vbKyKAsXaci/kPgrO8j3r06dP+RolLRIEiCjM+lvYgTLKcj/lDO8l9Ni+Ryhyj3awf73nc+9beQcvAUVrr0nndBns9HzTJ7RjaHjvgz2ZnDDux/FeKJYNpQFHn0V/3nxvTz4T6Jaj+9DUZXfFyHcCTT76RFq0+R46MOub9NfnXh4jLzdDji4Tk2u8BNwwcy0tfHaLSXQ141e0/i31qS212/3680ZybPdILvrOmty7FNLugmnl9gu5b2XpSd2jEAiz/srgWxt888AiSmb8LO44lC65rxL7EQ9MT44sC7ln0StLvqn1Hj7eefRhKdNMh2BWRY7mCLgY1YXcN8e1rWMIuW9r8Ze68WEEUQZms4E5LZxMOl3YrItJWsRJk9yvv+EoCrPULzz3sAZrPqzmH/neicrSjxeCoDiVSHJfmyXo1ft4zxL/0XOH0C39P6bK0+vD+R/U/wQa3v8ELz5b7vk555UmVqby0uOB2JuS+z2rFgi5L8i3U2H6QpetXAcjkAm5dykkuLoS2goICLlvBSlJHV0QEHKfL4mPM9iHzbqY9oM0CSvIfZDVvt71peZWg3Am0mFxQO6P0z6Yri5v+rkGtxwuG/l09Op5rr0Y1OWPPA+qvQyA3OO59yKwbCh9LWVXHVN56fGsyH3BiW3Yb6CdwnXZynUwAmFjVXDsaqi15V7IfRSc5Xsm5L58MpUWVREIs/6208BaxLaa9E+XwU7PN21y7xFk7SNaJt5cNt/rhJvD/HEiLfc+4o8XCz3PyuYxNPzgqoW+Pv9Gn3s850UDcGZrPtcn6bMuE9NrIffFfCl31SWmcm/neC76zprcuxTSzkJp9bYLuW91CUr9wxAIs/7K6hr5kocweenhccehpElqXX4g273/rsGqXk+46y33TKLD4kSRe52ww6WmGbnnstRsgM9yj7yCXkzq2qe9sMQN12Vqei3kPt/fpyuJD0tnKvd2judiVBdy3849xqDtQu4NQJIoLYlAGEHECg5hA5GEp0ss9q5datSXwmZdjBKn7HOvCK/Pms6Emf3ZYRXnsHpCP8Pa5x7p2do+oP/fR5L7yuYJnh9+sM997TnyDHIvikvo9fSm8tLjCblP9zeYtY7TZSvXwQhkQu5dCgmuroS2AgJC7mNIaX+3WooNO6tmrTDbrTyQQuwGbLPzYRi5r3ywk+RDvHwIBDYcMjnCZl1M0iKOTjCTvtbz5/pwGa14z3VP48x42JyF3Ofz20xrTLGRfbvGDRurovCwttwLuY+Cs3zPhNw7ynR/N2Fn1bQUouQbPMBh58NK1wdGQouy/h54fwfJS1kwxmn0PfxWTIk9hOsy2OmdIg2iynnu/9gnvaJw3er33K40zh5QFhdC7rP7XabxW/fnaSH6to3qou+syb1LIW0rkRI0XMi9mxD3vbVaiH1OK1WYbowS1/pr2zPKpDvzbkvc8ivYuTpB33F/XkzqObzV77kdSZ9tf0OIXwZy/+GUMxp2j/aTXqt7bYO7xPNOWY+79IF2S+NiVBdy3269xLK9Qu4tAeuJDjcRK+WcsgJtp7rAem9yxCWIJmXocVwUtJ6+SNdZY+dve9Ssiz9u0H3lnXmpkvukSXAp8+ucFSSapmFC7gMs90Lum/abVo7gMnZYk3uXQloZ1Havu5B7tx7QTmS6iG01kVrWBLVMujPvtsSedXn/j0LuU5y5MHkZofeeN/mZNsRZsW4HXXrLKlr64jbasXtvw3M9oIi6CXWCdf2QwUPp5r5/oz6G/tpVt1WNQSvG0UW9D1ZhvQ46hRasmBsed+U8mjf44ypu776n0EX9TvXif/TMq1V+/JzzKiIeurzkOhgBl7FKyH0wlhLag4CQe7euUEQl2k51MpFaXOuvSRl6HBcFracv0nXe5D4RLHe/Qmm755iQ3HaMQ+89Q1TZ79ylX359J934wDo6Z9zzdNroJ2n0tFfU372PveG57cDCP2PmIlo6b2HhZlFB7jt69aGfz5tDH84dQcf2G0prV86tq+eaK79Cw6c8osh9UFzd/QZ5HPNXtZcBkHs855cGPD/uzGvq8i/KeODcCdoooYu+syb3LoW0kQxK11Qh924iLYribNd6mEgttvXXpBAtTpl0Z95tybt8TaxymQMCe/cdUJb7KXP+pEg9CD7+rpj6kkf0QfivvHkJ3XZX8RY20In5HljrD+4h5iDp2k7ETO7ZEq/HZfKvdHyAWw6e8xKpOHt5FMwFNIfu03JFuhhThNy3nJizrbCQeze825VUF6XdJlLLmiC6KGiTduQRJ2vs/G3MetbFX77c54fA1h1dNGzCSmW5X/jsFoIVP+woij7y1yOM3OuEHS41zcg9E/Ygyz3yYsu9v/wi3YfJTsJrCLiMHdbk3qWQWhXlqtUQEHLfKLFX/3sX/er3b6rpX0wN85Qwnyf9an0hpz+LpNDTrkuj1BpDsiaoZdKdebcl61mXxt4jIXkhULoPanXLPdx1OjrU37F9j4gk93tW3On57Af63GvPkSdeFNLWuy7559WPWqlcl7FKyH0rSTiHugq5r4KOaWBMAX977NNq6pd9O/FRFyxH+h8sSy5KLipNmF9mVJrQZwFTuKFxtSncOmuTFm6SNus4Jj+VrK2/LgrapB15xMmb3JcJyzzk18plloHc6/oQssjzXi87j+tW7otZ1d1F31mTe5dCsgJAykkeASH3VUxhqYdFHiTf5EhaSQq5D1j+LeIFw0RGWVt/y6Q7825L3uWb9C+Jkw4CZSD3QAZjBA7e5CzL+6THpzj5pdNLypWrizFFyH25+kDirRFyX4XUZkBBijjKLihtGLnnpc4w7er5VwYsp4Y8Oa5/Cldfko19ONWHWwFLsqnnAfnDqq/n49VFK5dXfNDrktYSbSY/hEiCuL+b9m1aK7vURrxABfVTlzDsCdG9cRVVuveYiE3FSWTWZe82qrz7BFU6Z8uymFkti9k5iyrvPkbU9baxrP0RbXSxS3/MIg0TepxRXtb3WbTRtAy/fOW+EYFMyL1LIY1VlZBWQUDIfVVSNgMKUpgqNtN4QeS+zk0G/pX9/lEtrabnyR9o6XGRl75smke6LfLgMvT8OR+9rnq5nAZhTP4RN40l2kx+X6Hkfn83da0u3gobjF9Zz9h8rNL1gYnoKPasC4h9VoRWygnEmj5YbyRrfyQbXVzk3woTe65j1vdcbt5nv3zlvhGB0LGqMaoXYm25F3LvYdcWF0Luq2K2GVCQImmFqRNmzpuJtf9ekXffcmp1cSN87jleUB5M1KOeqbpoH4hxflxHnBHGH43h7M0WJGglNvlxhll/9721OnH56e2X63AXq+7XzTY2chns9D4B67GQ+xn5YrD1YV0kxtc2ulh+a+G/taJgYyz4No7oou+syb1LIW0sk5ZvupD7qghtBhSkSFpxBpF7JtuqLM3qrhNqXk4NYUyiFTnXNjw5iDdQaZIHlxeUPz+r1qW2brNeLmOCMLbcc1jSZ5MfXpj1F24iSddH8jMjGbDemxxxx6EK3EPEop47Biay9sex0cXyuzP73eWJk1++ct+IgItRXch9I44SoiEg5L4Khs2AghRJK0u/tZzJMfvR6z73INpsGefl1KKWTevd9whv4xTONygPJvBRz1S7Ncs97r069uzIqNcF9UxjiTatC4dehhHEpGUn+dkRjFCBaQ/CZl20KJGXQuxzttr3vFhFCinkoY0ult+e3W8vD7xCxCzBGgKZkHuXQrQ6ymWLILB9+3ZVUyb3u3btapGap1NNmwEFNchCSerlcKu53Fa857onceb2R52F3Bdz4I+SGT8Lm3Xh583OQu7bg9zLLFwxf+Oejl+1oNlPVZ4T0f/f3tdHWVFd+XbDsDJmxT9n5Y/85cxb+JbzQCdLn4ox7zmjjnGc+AaUcUZUgmLQcaIoGiIqYCQzKKKgDmLkY4IfxEi3IpEY8AMBhe5pBREQBQXtRj7S4Wuguy/dd7+1695d99y6VXXPObc+Tp3ad63uqjrf57fPOftXu3adCtJVYeAoW+6Z3IfBaU/cCy+8ACtWrAAk9xs3boT58+fb0zmNnphI7mmHBewOnmf92l3wI/C9lxFxkPU3ynZwWerkQkZ2OspOLJfJfT7IPe7CxHNQfQ4mhVnf9jXitOTzAAR01jtlcq9TSUB7OdhgBHp7e2HEiBEOuR82bBiQJd/gJsfaNBPJPS7AROppMc76NfWj0aPMYAiy/jZaN+dvjEzIyK5RPRQJuV83Fs4XXlwffM7V8FnXglA/9hVjvu24zE14bn5oOrF9A0t+AN8cc1t1+nVjYURVfTNh9jlDYe66Z6rTKb1XMBMeO+f7sLLrWfCtU6ksuZsHGVl709AHBL3hftfF44egp2M5E/wIDCZxrGv93fpbovrJ29YwHaM6k3tbR0ME/Vq8eLFD7mfMmBFBadkuQpXc925ayQolRYUiM9qCCGIcSizKMv1ero6y/LTLkpFd0FMXmbyYRiTP2ucego2EOJzg3wPjh1zokGeVOitEW8jvqbvYZSe537b7iPP1b/yI4LxXd8ItszucL4QfO3FSVtRQ6NrOa3GKa3HQelLYs0lahnlPmAi516kk74LJav/Ren/RRRfl3mqP8lMl97ilX9CixuGNWXbr4Yd+tjI/JvfxyqGenILiZWQX9NRFJi+mUSHXgWlrCPZCQMs8WeXJSt886HuwsuvfYfbZp5ZedG8+Deasmwjj6SNxTnzJWn7h9AfLbbsHxpct80juTxkzuir/40v+OcRyf49v2WIZlXpKbcYX2weffSGMP7t081G5oajEl/rxbDTYeV6onTRvM1w6aU3N3+1zPwSMQ2t9y7udsLPzmKyIq9INHN7HH6QzhODj+tx/cE+VfPgiHIEgXRWWS9lyz+Q+DM5K3MCxbueri1l/oWfXyoWZJ6m9W1ZDYVc74AKv+1Ml9/w4OD3iKCvnIOtvEOk0JTzIcu/uSlT1teKn4eFh33JIpfhlYlP64tcOmTmqo+zEcgMJu4rriQ+53zHtLIfcIzl2CfS6sXCB41YjWN6FenzzdFWT+5JbjpDf4xLk7I7VfFqNW45YdhPFC+0WSXwRyxyMNyIVtxz/fsi53MhgLMqEz+UQyPvmFnIo2ZVKZ71TJvc6ldgFc/3eFPbuyDwh9lO6NoThB4p0fqrkHuvAGzx8YcgG3LLQB/yqrCyxR/kEWX9N76sfuadtSp22C98rEMOd7VTL3zcwuY8y87NRPSRDPOumEUgypV0x5i8dgo2kmrajxWM9co7W/ioiLUHuA33uPcSfyq747VduEoj8l9pf63Pv3w8m9zJjNK40o0eP5qfpcYFraLk6RnUm9xELc+DoASZzhjz+CyIwOi/x6JD7iIcWFxcxAkEEMWjcmBLuR+7FD4thO+majk7bhS8Tm9IXv3bIiDnoqYtMXkxDZLyho4fcIxEmn3s8dy33rpXen1STK49oRcdzKqsSXsmPVvYgci8Sdr+yi3jjUPb9x7Qu6fex3Pv3g8m97DiLOt2qVav4PbioQc1AeYmQe51KMoBdZE1kX+v03DH8iIJfmKxPtjgomNyLaNhxbhO5Fy30zkfChp8Bj7Yuc0i+35eJ/eaFKWEyoyvoqYtMXkzTEKknsu6xkLsk2YmfWfGRb2oq++FXSDUSdrLsjzj7L8rxlTx/egXEs8sAACAASURBVO33q3zuqWzHj7/5NAjzufcru3KDgMS80g7nRdzyuwD+PveVNmF76X2CSPDrWigrLk5XRuDKK6/kHexyOBqCdFUYFMqWeyb3YXACoGuAKUqS2xFwo6Hx4Qwm9+HjPouxQdZf0+eN414jbMFIXxVmn3v5URgFOcXaqByqOU/X1NdGjoQbH+sj8O6778LUqVOdLarxuzNz586tn4lTWIFAIuRepxIr0JXshOnEgNtXIvyS4nSTaZH7/gKc7NzKfvcxu2nhkxj8WE2x0OPKS+YkyPpr6xxB6/7g4WNha3uL0QYIGdk1qocaIaSUN+sfjWu0/YRDI0cZWXOaEgK7du1yTnAHu87OTuePsckHAjpGdWXLfaOLqu2isJUY2NYv1XGoTO77C/wUJ2ZS7x2TvR+sgGLvcWnRBq1l3nKzfF1l5W8e6rjqmN4fGQEGPXWRyYtpinsXu1b3RsgpfTSOysjbNfVb9ygrL05XQeCyyy6Dbdu2VQL4zHoEEiH3OpVYj7zQQdMVJ7cvGcs97srDWAe4RcVI+vGdF9lfHsh9FsegrPwaSVc80BoJudcltZxvIRS/XtKICHOb97rrroONGzfmtv957HiQrgrDQtlyz+Q+DE5gQhcjcYuSqIRLsTZW1XKf9e8bRIl1kmWh9V72F2T9TbK9XFftDaCM/HSUXVW5xz5mck8vBqd0hMPyN+JVssv5BZP7/A0AnfVOmdzrVJInUbCyrlXWJmKiOiZVyb2Jfc5Lm2RlG+Rz37tpJd+kp3iTLiO/SPTQ0c2RueewJV5te0w4vB6g2C8jak7jQYDJvQeQHFzqGNWZ3Ec8MIwjUPhBm/IXKnErs/FzXvYlLlVb6aWo2JPCT1XsTO6zcdOG40f2F0QQeTvb9GQtu01tkOxkZc/pGIGsIsDkPquS0293IuRepxL9LmUvZ1LkVLYeJO20VV5YHmVy3zYdxg25GJa3mb3zRlCfVUcWk/v0CF+QDIPCZWUbRBCLxw9BT8dy35vgoDo5PJrxofKFYVk5czpGwCYEmNzbJE25vgTpqrDcypZ7JvdhcJrncx+0/R3tid08uETQRXLvjUPiQmFNuONGy1OVpwHlHTjc+KYm92YCy/zGyEtg3KAhgU8M0iJF4VKsjWVyHw15S0LetdLzDwnyucfUA8e6eQvTBJ/g4fdBVIi9jrLzHwUcyghkC4Fbb70V8Eu1/MsPAjrrnTK516kkPyIwj9wjmaLt8NwvVQrWfIw7f9QUIHKPR7L0e+OqiJlguae8Tjy6AZW/jonhdPNQlTdB0hBUr+qYNJXck2zpa5fiPuaIv3gdhIVt4bKyDfK5l82vms6mtTPtvqRdv6rsOT0jEBUCkydPhmXLlkVVHJeTAQR0jOpM7iMWrMlEiYj7lju/6376HEkhkn4i6H5xGFbjqy+Qe288XVOZJmKiIvZNOw/BpHmbYcV7e6WzJdVnJPfnCR8myiuhF/GWFVLSBFFngZbtS9LpksbO27+06/e2h68ZgaQQYHKfFNLm1KOjO5TJvU4l5kAUf0tEkmHC+ZY7L3c/XENkG8k3WeepjWFxmJ6s/pS+RyD3lNeJ81jua/IZYLXHdtJv/ZaDQFZ5Os57dadD5pHQXzppjTKxx7JdnGLur5fcY73oIoU3Y+6Tl5YJcG7zIOeGjuTuulEJHzZyw8i1SpAllivKmdLSkxmMIxcsx3WrdZmDAYZTnUlhQrKtd0yaINq0dtrUl3rjhOMZAZMQQJcc/oiVSRKJvy06uorJfcRySYrASNcj7JZDRKxHCKMddFzi5hOHdRGZE4mbE1bH5950ci8SeSTz+HfL7A6H1BOxR9L/5X75L5/ikJKWT4Pk34/cu09Oyi5XdE1tcmUt1F0VJpB6kZy3jhzu3CiKYe4NhOCC5cYL5VDdSRxlp3SYz71sGSrpdBZolfKTTJs2ubcJyyTlxnUxAoxA9hDQWe+Uyb1OJdmDUr/FSZAXrqPxlztlJYwuOUjur/9FG7Rt75bNliq5d0l4mdzjeKGbM7Toe8k+xnvD3OvyE5pXW2523X8wjnz8vW5dzthsexoeGX4pYB58nyPp8SorJPa5l0WqNl3aeiDt+msR4RCjEegvQGHvDuj7dD3gh+6SXpO4vrLO7lgOfZ+shZOdW6FY6DF6yJjUOB1jCpP7iCXIk7hx4p0EhqpiJ5cd2XxJ9AHr8FrukXjTS7RkVXfbgkT9zLHwysSzatysgiz3mBdvDM4bdrr73gXW4XW1qcpfvlkQ87htEJ4WxBUmK6OkCaLOAi3bl6TTJY2dt39p1+9tD1+biwDuwsQfpjNPL+NNVn/3V+YOHINapqM7lMm9TiUGYRR7U+IiLFxutIuT6kAwmdyTPz1Z0WmsELkXLe30YjRZ8mvcrJqaqnzzsSwk7q5LF5JzH9ctL7l33sk4cyxsbU/+Owiysk2aINq0dtrUF9nxwumyhwBah5nYR6s7Sb9EcuxYDsWeo9kbWAm3WEdXMbmPWEiRDPgErJt5b6eq2E0l96bK0c+6n1RbZWUb6nPfX3AeHfdtX8OP8GNej/CrtIUvOpQe0+soO9lxwensQQDdP5Jad7gevZsI/CI4/8IR0FnvlMm9TiXhzbYrlie43gRPGjfVUcfkXlKuZas+uQYlLVesT/YX6HPfXwD8qFIabc9znfiYvtgr9+I66yHZUZ7vdOjfnec5lYW+45MV/oUjoPOklMl9OKbKsVmYTNxGeQJIA4DJvSS5j9nKKzN2SWb1jkEE8eSXHzEhSEmOsla8INnVkznH5wuBno7lPJdTmssyazWlydeoVO9tIuRepxL1rmQ3h41v4j95/+1w+L3fWLVIqo4wJvf5IffoJkJKh4/Jyh3XT/4xAlEhwPM32fmri3dU8ra1HB1jhrLlnsl9+PDBrbZ0B7ip+f7viHNh18qF1vSrd8vqcCH6xKqSe36JKz2l4iM+36Agn3tT52Fe2uUrLE+gjrLzFMGXOUAgL3Mm6/3MwVBsqIs6650yudeppKFeZSxz//7PrSHBtGDYRu7xJSvVnyq5R/cCwo+PyRF9tLrL/oJ87lleycnLD2sZ+bEekkGJ0/iNLw5Ld3774c8jNRwBHaM6k/twTLVibbPe20TuHfI30K8sV1VyXzx+CNjfM3klgntay/6CCKKf8uGw5GQpI78g2cnk5TT5QYDnbXLzthGs8zMi9XqaCLnXqUSvO9nOhV/Ds2XHDRvIPbrJOBZ7DWKPI1GV3GOegWPdwFspJqNccK6pEHuUTxBBbERJcd7G5Z3tlZ9bbxICPB8bn49JYGjSmDGxLUG6KqytypZ7JvdhcNoZd9FFF0FnZ6ednZPslQ65lyyak6WEAPvcm6n4ZYaDjrKTKZfT2IVAEsSU62h8HbFr1EXfG531Tpnc61QSfVe5xCQRYHKvZ7lPUkZclzoCmfC5b5sO4wYNcb4ajF8gvuCuJ7Te5aAvEt848lJI8xsEMkRIRpKsh2RQ4jQy4005jc8XupXLKH/5W2cu4gcCA/O1PQ2PDL8Ulrcl/2VwHQwoD4/UcAR0jOpM7sMx5VgAYHLP5N7GiRBEEEnhpH4sE/vxc17WIvRu+7GcIRdnRuHLjLUg2cnk5TT5QcCdAxHu9X5izg+1b7Ibbg/eWAw/A84bdjo82rqsdl3QJfcprxH5GZF6PU2E3OtUotcdzmUKAkzuNcl9f8Hx82e/+8Yf24YpRXxJuvBFBxQLPUpTJogghtWVZBxa6IIs9WSJF635SDq+MXIsPDzsW46l38krWhmbh8Ksx2+E80dNgR4hfNCwi2Hc8EuMIf9KQuTEjEAIAnHMV5xnfpZzmpPNg0s30qX5eEnpyVvzUJeMY/gpo+6FEy0TSnOxvRUob5OQjsKoPOwL5rnpricAyxDXBkpbNZeFp35URqlNlTUC2yGuBVQ/lVedr9SXho0NPjdaISLkqJD3w8LAUbbcM7kPg9POOCb3GuS+v2DNC9VxKMg4ysQPIBV7j0tPQtN97pHc+ylSIgcOhmVLHlrxMJyUM5KA84aPha3tLdAjWOWIUIhlYNi5f2KOZV9GgEE3ZjJ5OU1+EIhjncEynTnTPMgh6c61QLbFOSaSYyLjrSOHO0RfTOeQbIH04vyk9JQO66G8zpw+szS/ZeYyrSXiGuGQ+uFnlG46xDXCp27MR32JA9P8jEi9nuqsd8rkXqcSve5wLlMQYHKvTu5PfvlR7SNTYfGOY4HkMlsBvy8g+zPd5z7Ick+KmuRN16KSFwm9eE5EgfI4Zeg+yo9pPMvIj/WQDEqchuZIXEecc0jCcT7hUzT6cyzzZQt9aY6VXONebbnZven2nYvlOeVXnjOPhfdvsC68+Q+ay1j+uc2D3DZh2qo1or21klcg9351e/NFjSeP1HAEdIzqTO7DMeVY9rl3xoDqbjnoKhL1Asjl1XfvQeu97C+IIJqCs6OcB9X61lYpWo/l3rUACso6iNxTWqcettzLDhtOlyEE4pjLW+68vMbFBgkxWdqpzqp5Wna9QV95ehonknuai5RXpjwqH9NSfnEuYzjVhW42RO5dlyJh7RDXCJm6qZ1RHTM0pFJpaiLkXqeSVNDgSiNDgC336pb7qBY9Lqc+ofdiJDvwTSf32C9HWQvWNyIQ5BPr9bknJS8qa/GcCIXoZ1vlpxuTNd4ro7BrWflxOkagHgJh40w7TnhfxXVVEcLIok7km+rBazd9eW4777/4+dz7lEcEncpz5vXg0+HRlqfc92zEuYz10ZMEuqnAsEHDTnct+rSeYJnOmoI+/0J5QX1x2xDRelFPjnmPD9JVYbgoW+6Z3IfBaWcck3sm91Ev5nGWJzsLTfe5jxMjsWxU+K41LyJlLZavei4jPx1lJ1Mup7ELAdWxZ3t6nOuuAcCAuU542zXqou+NznqnTO51Kom+q1xikggwuWdyT4twFo6yc8N0n/s4sa56IiDs0BFnnbJly8iP9ZAMSpxGdsyppENUKT0hnKdr6muUR8KRj/4I6BjVmdz7Y8mhAgJM7pncR7mQx12WMHRDT4MIYtzt4/LDXa1ChVaODJKdTF5Okx8E4phr/ad+xwUQz/N2HQemLqB84otAIuRepxLf1nJgZhBgcp8yuceXI4VdEtBPslFXCr/8UT6yjbIsVWUiO7GCCGLvppWuZU61bk4fTtxl8JGVH6djBOohIDPedNIQqae8ebumfkd1rCfHvMcH6aowXJQt90zuw+C0M47JfYrkvkzsadeDqBZTtxxhV5UoCXmUZbltlfQRlZ2FQT73uJ2map2cvnFSjxjiLlMyPx1lJ1Mup7ELAZ6X0czLuHG0a9RF3xud9U6Z3OtUEn1XucQkEWBynx6599uWDBda2vUESfQ3Rla+HOjuolL2o8Z4d0cEJPL04RP8OqLwNVP8+NEjEy+r+sIpvXgVVIe784PwZIHCXHJf3vWByqL2ienE9kehRGTnRpDPffH4IejpWM4EX/JmKgqZURkDh/dJiY/1kBRMuU9E44qPZpP83A/UOgDoGNWZ3NcBlaMBmNynS+79rPYiuReJMpFoUmah5H7UlOqvlwpfOBW/XohliHXQzQK1gerCI+2tTORe3L5NbAvlFcsWy2nkXHbOhhHEgWPd0Ld9DRP8hAh+70dvgCyxR/mGyU5W/pzOfgQaWUc4b3I3BPaPxMZ6mAi516mksW5x7rQRYHIPsK+7F26c2Q63z/0QFrz+ObRt74ZNOw9B99E+X/FEpRhkLPdE6IlYi3WLhNrZF1m03PuQeyoLy6DyiKhTGO2djEdMj0Td70uIFE/twfJq8sawNZuvQHwCkyaINq2dNvXFZ2hwkCUI8McEkyPotM4rHzuWWzLa4uuGjq5Sttzzoh6fAE0tmcl9RTLbdh+BpW/ugXt/uQUmzdsM10zfAJdOWlP1h+HKC1yAhdQhzn5fKUW3mlFTqj4njuRZJOfYBpGY4zntZ06W86oPHAnxXss9lYt1kOWe+kg3AXhNlnqqV0wvnlNeSkfXURwr0go/C/K5D8+lH6uzQOvXFm/OtPWATVjGK6l8l174oiOytTiKtYnLqL3ZwCek/AtHQGe9Uyb3OpWEN5tjTUeAyb26hKJcxL2WcWe3HB9yj3WSTzv60D/augzEL5E6vu1eyz3lKfvc+329sIqA+3w5EePJIi9+CZFuCLBNzk1F2zz3S4qYnj6HTumiwkxWWkE+97L5VdPZtHam3Ze061eVPadPBwF+f6aWTEe1zkZVTn/3V+kMjgzVqmNMYXKfIQEn3dSDBw86VRK5P3LkCPT29ibdjEzWF9XCx+WoKyfZAZM0QdRZoGX7knS6pLHz9i/t+r3t4WtzESh0bWfrfcCT4bT1S2HPJnMHjkEt09EdyuRepxKDMOKmKCCwatUqWLx4sfNCLZ7PmDFDIXe+k6a9aOa5ftmRlzRBtGnttKkvsuOF02UXAXxZ24YX5Pe/84IVNyr4LkT/wT3ZHVAJt1xHVzG5T1hIWavuyiuvhKFDhzp/27Zty1rzU2tvnsl12n2XFTr73MsiVZsubXKvo+xqe8EhjEC2EBg9ejTQE/VstZxb2wgCOuudMrnXqaSRTnHedBFAiz2S+1tvvTXdhmSs9rQJbp7rlx0q7HMvi1RturT1QNr11yLCIYxAvAiQLuYn6PHibGLpOsYUJvcmStKwNqH1nq32akLp3bTSisenWbxJkJVU0gRRZ4GW7UvS6ZLGztu/tOv3toevGYG4EaCn6MOGDWPrfdxgG1a+ju5QJvc6lRiGEzdHEYHOzk7FHJy8sHMDk/sUXuJCX07ZX9IE0aa106a+yI4XTscIpIXAu+++C1OnToURI0bA/PnzYe7cuWk1hetNAQEdXcXkPi5B9RegsHcH9H26Hno/WMFELwWi19OxHPo+WQsnO7dCsdATl6R9y+Ut2NR3uYniKYHKV06lfO77C874seFlvCjwjbMMvDHDfcll5qqOsvOdqBzICGQAgV27djmtpJ3r2OCWAaFF2ESd9U6Z3OtUEmEfM1EUEgx2y0iH3AWRD7zBSno/3YFj3Vbs0BCEqUnhvR+9ASrEHheSuj73/QXAck3qZx7agnO12Hs8dK1nPRQKD0daisBll13GLrKWyjasWzpPSpnchyGqEYdWJyb2ZhF7lxB1LIdiz1ENqXIWGxGoRxBPfvkRE/s0nri1twK6tYX96skuLC/HMQJZReC6666DjRs3ZrX53G5NBBIh9zqVaPYnk9nQBcQlkykpRq4/+OaiHmnI5KDjRmshUI8gopsIz6XguRQnNmi9j+03cBzg0LtQ3PcSFLsW8l8SGOx7CeCPbwP07Y9NrHkomMl9HqRc28d6uqo2B4Cy5Z7JvR+MlTD08Y5T6XHZjZENfKrCP0YAEajnc89zrbG51ih+YaNUR9k55fUfheLXS5jQJ0HoA+qAvr1houW4EASY3IeAY3GUznqnTO51KrEY85qu4UucjSo1zh8vqagRGgfkEoF6Pvc8D+Odh/XwDRuU2nroj28zsQ8g3Yk9xTjQGiZajgtBgMl9CDgWR+kY1ZncRzwg6iksjk+XMCD+/GMEEIF6BJHnarpzNWyU1pNdUF622pvhhhQkHw4PR4DJfTg+tsYmQu51KrEVcL9+MSFIlxDI4O8nNw7LHwL1CKLMWOI08c33OEZkYtbptK3jhtcfh2zzUCZ+KR6/VMu/fCFQT1f5oaFsuWdy7wdjJYyVfXzKPipsK9LiszwjkCWf+y13fhcGDx8LW9tbat3+2p6GR4ZfCsvbfOI8L/WfmPPD4HI8aaOab7rlhI1NHWWH5TG5Z8t92LgyPW7y5MmwbNky05vJ7YsYAZ31Tpnc61QScT+NLk5XkXG+5G4KjB5A3LjEEMiMz33b0/Dw8DPgvGGnw6Otyxoi91laZ8IGgq4eYnKfM3I/0A/9+3Y6W6vasEX13Tf9Myx9dErtGmDYjbl3ncHdr/CDnvhhT+gvhE1tjvNBQMeozuTeB8hGgryDmq+TI+2yWDciX85rDwL1CKLseIo73YmWCXDTXU8AWt0vuOsJV7G3jvwzaGpqgkHDLoZxwy9xLPeY5hsjL4Fxg4ZAU/NQeLTlgdJ5UxOMn/MyYFnnj5rilPWNkWPh4WHfcsoQy427P7Llh420erILyms2uZ8Js88+1ZEHyhX/mgd9D1Z2PWvdE4cg+UQZjl8J792y2p0vsuPO5HS/nfcQfPjyU5nuE95kDRw9EKWorS8rEXKvU4n1yAsdNHlh4LaVbjQEcfFpjhGoRxBNmS+tI4eXLPZt02HcmSXXHCTxp4y611HySNjP/ZOLXXLfPNjnvGUCnDd8LHzc8mOX3Dvkv3WZQ/gxztflJ0WLYBxD02xyT1b1mfDYOd+3ktQT/iTbWUt3wKR5m6v+7v3lFvjVG1/A0jf3wKadh6Dv5AAllz8O9PPXpVOcu/XWTucr1IUeeXnmPGU9XeUHj7Llnsm9H4yVsHqDWjkeFTpa4cqWHGkLm4IfrrdNSBZcZe9Tv0gsvHllrhvNL1NHWJqKtPgszwhkwufeM/9wHUALPPrg49EZ58JcF+cWWelLaUo3BiK5p5uDHqxjSOmGIGzeJB0XNjZ1lB2WR+TS7GM1uR9Y8gP402u/D+MHDYGbx/wfOGXMaNfC/80xt7l9WjHm2yU90XwazF33jBtuYl9Jtvu6ex0CjySe/tq2dzvkfsHrnzuk/4rJa2Haoq2ws/MYZat7RPePpMcr16f2lL6wZ1NdOXKCEgI6650yudepJE8CinSClxW7q8RV7sQFha/aJpc4BNQvEgjVsjF9o/l16hTz5Gk8cl+DEciCz713rtA1zlEi517LvRiOLjjO2Me5fGa15Z7SMbkni7kpx1pyT+45SPSbXPI+E2afM9Qh8hguEn0TCb3YpuBZ6R+zfstBGHn/e/6RPqHo3y2u+XyuRryTwAtdpvgnh4COUZ3JvRy20qminBSowIMs9eRvi5Y8MQ2Fi3642CYKp0f2Yhg9nnfaLljxgupHghHkrytTDxGUHnxRcNi3XJLizVuqp+Q/rHWDE3AzJC1MTmg1AvUMFVHOZd2ycE5UjX2cn4NPh0dbnnL95cW57s4tvIku+9e785rJvdHW7Ar5rSX3RNy9JH7HtLNgwnPzgY6VMky5UfFvh87CcumkNdLZ0O1Dd85xvuRuBKQFmvOEiZB7nUryJJcoFwbXgu4hqaICdwjy8DMcn1wx3GvNoxsAUvhiWrHNGE5pw+qnGwIsj1x4xLxh9VDdInEJyivejIjtbOQ8T+OR+xqMQBbIfSPjPOt5gyWnH5MN8htO7gefczV81rUAil0Vyz2Se7oByEIfdSSoQu6zPvbz0n6dcZDHPPV0lR8mypZ7Jvd+MFbCopyUQZZzL+mmazo6bRDccjCcfPbxiI/jq9IKNw/uy3vtrU4aIvpiv4icl+qp+OvK1oP5qR1Url/eqnqENlIe3WNFWnyWZwQy4XMf4bjXnS9p5QsbmzrKDsvLAvFF0i6+UCta6/F80Nl/Duc3D3LW0AunP+j2KYs+92Ey9sYxuU/Oop7UnPfKmK/9EdBZ75TJvU4l/s21MzTKSeFY3wfV7m1dRXrLe2Dj/tdIkMmP1slb3kEDw70kXUxLbSZru3h9bt36q8m9VD3lnT7Edonnbv3CjiAUFsXRzpHHvVJFIAs+91GM96yWESZPXT2UDXJfcmXB/ovtxWuR6PvFe9OL1yadh8k2KI7JPZP7oLFhe7iOUZ3JfcSjImpF6pD0spUGrd1Ensk/XQwjH3YME/1wxXCMIx9etwzcD7t8c0Bx1A+/+qtvLirkXrYeMT+2wfnyZts814eY2iimo/ZEcYxY5FxcRhGoRxCjGGtchj4hCRtW9WQXlNckguvXFmw3huOv/9TvOEfvNbrfhMWL6f3qMCHM6YDiPyb3+nPJ1HVIcQjkNnki5F6nkjxJxNRJVLddwou0ddNm3FUgT+OR+xqMQD2CaMMXLbM8l4Mlpx9jArENawMRejxiukavw+pKM05HgkzumdzrjBsb8tTTVX59VLbcM7n3g7ESlmVlmpe2V6TFZ3lGoJ7PfWHnBt5xI6Ub+b6tb4cOTR1lhwUW9y6ucnVJk+AG1U3EnuIbvaZyTDqGCjcgksk9k/uAoWF9sM56p0zudSqxHnmhg3khyFnupyAuPs0xAvV87vHz9T0dy5ngp0DwBw7vCx2Zunqo+IfXjSf3JpHwWNry9Yuhsg2KZHLP5D5obNgermNUZ3If8ajIMunNS9sjFjkXl1EEZAjiwLFu6Nu+hgl+QgS/96M3oB6xx+EmIzvfYdn7FZP7Lv+952Mh8j51wdHNvqKpF5hpco9ur54vzTf6Tlmj+U3Q9/VkzvElBBIh9zqV5ElAJkwYbkO4hSNP45H7GoyANkEMLjI0xqa1M9N9Ob4Dil8vYZLvQ7xjJfh7F4MusceJlVlyXyb2NZtVNLgbHJP70OXWqkgdXaVsuc/0op6AuJlYhxNrE/BJYBhwFRlAoJ7PfdRd0Fmgo25DVOWlrQdswjIqmdhezu1zP4RfvfEFbNt9pG5XTdAz1Aa/bZ4xDsl5lr/0Tv1r5FhXkJzAQUBnvVMm9zqV5Ek+jQx0zpvMjUGexiP3NRiBej73wTn1YmxaO9PuS9r1640AztUIAsdOnHTIPZL8kfe/B5PmbXb+Frz+uROOxJ/+3m5dYYwrHZJ7r9UedT2S+yx/6T0KvtLIeMhTXh1jCpP7iEcI7vIQxaDnMmIi+h3LI5Y4F5dVBJImiDoLtKnYJo2dF4e06/e2h6+TQWBn5zFY+uYeQIKPbjr4d8vsDpfoE+F/4pk3jNHDYZZ7+uhkj7AVNabHb73QX9AX5Z2bg/IX54kv+OU12X0nmVGT/Vp0dIcyudepJPvQyveg8EWHMYsKTXg+Vm4U8OVI/jECiEDSBNGmtdOmvvBsyAYCc5Z96hB5tNS3be8GtOQH/UzSec6HIC380nsUGAfJj8Orcxne6AAAIABJREFUEdDRVUzuqzFs+Iq3z6sQ6Sgmf9Rl9Hd/1bCMuQA7EGCfe305pk3udZSd29u+/VD8wxtQ/PpFfqk2qZdq8QXmP7wO0Ku//mb2hVp0wWmZAOd6vjRfZVEXLPdZ+dJ7FLrZnZN8EoqAznqnTO51KglttYWRha7tbL1PaOs8lQWmsGeThaONu6SLAPvc6yKX/FMPb0u19RAS+6QILdfjizUc3+EVp9R1lsm9ip7KU1opwXMi0DGmMLmPaeDgXs28P7YZVnx8D6L/4J6YJM3FZhWBugSxvwAnO7fyPI75Rh3nJ7ozFgs90kOpruwCSuKPWKW7x71zY7XvpQDphAczuTdDn0Z58xEucY4lBBIh9zqVUAP5mG0ELrroIujs7Mx2J7j1jEAZgVCC2F8A/KBSlIqMywonJ70frIBi7/FYxyfvb28Aue9aqCVjJvfh8yeL64vWQMhhplBdFYCHsuWeyX0AkjkIZnKfAyHnqIthPvcnv/yIiX3MFns/MlLYuUFqBOooOyyYXXKY3PuNOw5L58ZBarJzIq3NH5TJve6iyvLJPgJM7rMvQ+5BBYEwn3ve0jYdZY/We5mfrh5ics/knol8OnPbD3eZuc5pgH3ueRDEiwCT+3jx5dKTRSCMIPopIg5LhhTIjIIw2YXlZ3LP5J7ncTLzWAbnsLnKcRUEdDxmlC33OpVUmshnWUaAyX2Wpcdt9yIQRhBlFBOniYckeOUU5bXR5H7dWBhxztXwWdeCsvvQTJh9zlCYu+4Z69yJdGSq5HPfsZzd6lJwq1NdE3XGQR7zhOmqIDyY3Achw+E1CDC5r4GEAzKMQJjPvaqS4vTREX2ZIaWj7LDc7JL7e2D8kAthZdezUOwSz82wxKviKiNjbxoVcs9uddHNx7jWNlkXPO84yOO1znqnTO51KsmjMGzsM5N7G6Wa3z6F+dzHpdC43PqkQ2ZE6uohVRKaaPoAy/2cdb+A2WefCk1NTdV/zafBY9P+Gk4ZM9qN/+aY28y+gSnv/S8jY28aFXLPL8TXn2dpr0WyL897x0Eer3U8Zpjc53GkaPaZyb0mcJzNSATCCGLaii/P9csMljDZheVPlKyrfsRq3Vg4X/iKqUPmm08ru+WI1vrK+cCSH0CTmyY7bjxhMvKL6zs5ACrkHrdU7WHXHKNdkwaOdfuJmsN8EEiE3OtU4tNWDsogAkzuMyg0bnIgAmEE0RRyTZ+tv+CuJ1xFveXO74J4HdZW/MT94OFjYWt7C7SO/DPH8jt+zstuWWF504oLFFgEEaaT+2Cf+wqhF91ykNyL1vod086CCc/NN956X0+Um3YeAvxb8d5emLZoK1wzfQMsfVPtQ4T93V8xwTfU775/3856Q4DjBQTCdJWQrOpU2XLP5L4Kv1xdMLnPlbit72wWfO6R3J8/8hIYN/h0eLR1mUPK65L7tukwbsjFsLytpULi/cIMVfwyA09H2WG5NpL7we5LuNmz3E+at9mxyKNVXvzDcPybs+xTWL/lIBw7cVJmWNSkKfYcBXT/QP/utG5Wud6yi1DHcuj7dD2wxb5mmNYN0FnvlMm9TiV1W84JMoEAk/tMiIkbKYlAFnzukdyfN3wsbHn8Cjhl1L015J6s8ejC4Vjz256Gh4d9q+Sb3TwUZj1+I5w/cmwlDP22m4e6Nwpo2Zd9CpAUSZERn64eyi65XwgrxnzbdcGhc/S5H3T2n7vuPBdOf9DsG5gGfO5lxoXtaa688koYOnQoDBs2DA4ePGh7d7l/ZQR0jOpM7nn4SCPA5F4aKk6YAQTCCGJSRLZePUTut7bNg4eHn+GQcrLcIzEnwt+DpL4c3yNY6R3L/6gpUBVGhF7MY5AVX2bohMkuLL/R5F7VR79rIXjdcrLSvzAZcZw/AqtWrYKpU6fCiBEjYP78+TBr1iz/hBxqHQKJkHudSqxDOqcdYnKvIfiBPoAj7VA8+FomLGpZIQc17TzQCnDoXYCB49JCCiOI9Uh3UvEuuW9vATp/ZeJZjrUdSb7oP+9e1yH3eCPwyPBL4dWWm+F8JP4GEXtsS5y/mnGjQahNKoPJfZyjxayyP/zwQ6dBpId37dplVgO5NbEhEKargipVttwzuQ+C0v5wWlTs72lEPRzog+K+l5jUJ0mgvl4C0H9USoBZ8blHtxx8IRaJLxL484ad7pB7Xcu9WI54c2AKyZcRno6yw3KLexfzfExyPgbUJSNjTuOPAOthf1xsDtVZ75TJvU4lNoOep77xoqIo7cMbmEgEKPc4rZ/QvVpKUFnyuSdy77jXDBri+snX+NyXrfBOOPnce9xyHBKP1v0zKzcNphB7bIfMT1cPFQ+08pxMYU5WzXe8AeefNgKsh7Why2xGHaM6k/vMijv5hvOiooY5E4mUvp4pSR7CCKJJZDeOtpDffhxlN1qmzCwLk11o/mMfM7lPmdzD4Q2hIuLIcARYD4fjY2NsIuRepxIbwc5Tn+itfFpUjhw5Ar29vXmCQKuvVdaqlBVq3toiI7AwgtgoQTU2f3k3Hdr73sR2ysiuoTRHN7N7TkrrERxeD1Dsb0h8ec9MejjvOOSp/2G6KggHZcs9k/sgKO0Nx7f0Fy9eDLio4PmMGTPs7WyEPcsboTapvzJizILPvYnkO+42ychOR9nJlMtpGAHTERg9ejTQy7Wmt5XbFw0COuudMrnXqSSa7nEpaSJA++viHrvbtm1LsymZqdskspu3tsgMkjCf+95NK43bRSZuUm1K+TKyYz0kgxKnsRGB6667DjZu3Ghj17hPAQjoGNWZ3AeAycHVCKDFHon9rbfeWh3BV4EI5I1Qm9TfQKEIEWEEEb9qaQrZzVM7+ra+LUgo+DRMdsG5OIYRyD4CTO6zL0PVHiRC7nUqUe0IpzcTAbTes9VeXjYmkd28tUVGSmEEsXj8EPR0LGeCn/Ae+AOH98mIjtMwArlFgMl9/kQfpquC0FC23DO5D4LS/vDOzk77OxlhD80l1DPhsTH/CJ91LXB2DsEP4Ux4bn7VLiLO5+2bmqCpqQl+PO0a9/P2eI1/3vSm9VVGjGE+95h/4Fg39G1fwwQ/AYLf+9EboELsdZSdzJjgNIyA6QgwuTddQtG3T2e9Uyb3OpVE39XslNjf/RUUvugAfNycp8frJvW1d8tqKOxqh/59OwEGktupwTTCW2lPmdx33g3jBw1xyDqR9gunP+iS/B3TziqR+HVj4cfTf14bntKOG5V+BG+1KbNC3PjiNviiu0cmaSRpbFo70+5L2vVHMiC4EEZAAwEm9xqgZTyLjlGdyX1cQu8vQN+n65nQJ2D1U7mRwJusYo/cF0wbHRoyJDT5NDNh9tmnOoT+m2Nuq7LcVyz4lTRI+i+49vtWWu6veGYThL1U26j8vfl1FmhvGaZcp0muvz7aB6dNW2sKFNyOjCBgi6Ft+k/GwYcvP5VJbpGWoS0jQzSwmTq6Q5nc61QS2GKLI5jYtxq7+OAC06gFv/toH2zaeQh+9cYXzt+9v9wCk+ZtrvqbtXCFa+1OnsQHW7WLXeSWUzr+dtrfwNx1zwCS+xFn/4XrcoOuOc2DvgePTftfVdZ9JPx0Y2BWvyp9llla/uXlT2D++uRczWxaO9PsS8/JARnxchpGoIQAG9qM1MVJGtqyPhV0jClM7mOQev/BPUZOJhULt+1pC13btSS/4r29cOPMdrhm+gaHyBO5b9ve7ZB9JPz09/W2XxlN7j9ddz1cMOY2WDHmL11yP2HJ7TD+nKvhs867YfY5Qx1/e0yDJL5i2a+Q6CyTe3TJQStwUj+dBTqptqnWkya5n/nmF3DXK5+qNpnT5xQBNrTZbWjLw7DW0R3K5F6nkjyAL/aRt9EzdzGhmxbZLfdEuf6+fR+ghf7L/cfF4MBzU4kvWe7RYj9n3cQSme9aAK6PfddC2DH9Wsdijy/OIqknn3w6ir75JvYzUCieiP89qw2SsgTbtHam2Rd8Efp32//gkSRfMgK1CLChzXxdrGtoq5W2vSE6xhQm9zGMB9z5gUgkHw1dXDqWK0uerPSyGU0kvaU2kVvOAkDXG9r5RiT3v11yRxXZx3y2We5Rjlct/AjmvLNHVqQNpdNZoBuqMMbMaZH7QydOwpn/viGxG7IYIeSiE0CADW2G6l/hXTwdQ1sCQ8eoKnR0hzK516nEKJQSaAwTevMXFJSR6s82ck9uOcWue5xdc9C/fmXXs64rkUP2lzzkvoBLVns8etOadiMjK9tNnUcBrfdJ/GxaO9Pqy9IP9jGxT2KwWlIHG9oyoIs1DG2WDE/pbugYU5jcS8Mrn5DJfQYWlFyTe/N95hu9WZCfraWUr3x0QDWLcnqdBVq5koQypEHu8eXnJN2oEoKSq4kRAdbFduriGIeMkUXr6A5lcq9TiZFoxdgoXlDsXFDssdwzuRenP7l6xL1zjk1rZ9J9wScsuP1lkt8lEMcIn2cTAdbFduribI5G/VbrGFOY3OvjHZiTFxQ7FxRlcv/1i66LS6OWaM6vdkMSODkDIpA0fmfKGtiw+3BAisaDdRboxmuNp4QkyT3KBOXDxD4eWdpcKutiO3WxzWPWr286ukOZ3OtU4tdYm8N4QbFzQVEl99C9msl9Gl+xPaD+PgWuR0Qg41rj4io3jbU0qb4s3rjXsdjz7jhpSDn7dbIutlMXZ39kqvVAx5jC5F4NY6nUvKDYuaAok/tCNxT3LmaCnzDBh96vpOapXyJ00cEv1+KOLFF/vVZngfZrowlhcZN7vNH6ZP9/O3JAlxz+MQI6CLAutlMX64yFLOfR0R3K5F6nkiyDqtN2XlDsXFCUyT0Onr79UDz4GhP8JAj+vpegEWIvznW0FCO5RxKLH01Cotnoz6a1M66+4G44uD0pukjhjRb/GIFGEGBdbKcubmRMZDGvjjGFyX0MkuYFxc4FRYvcxzC+uMjkEEB/b/wa6v/8+XqH7ONuLUhs8Q+tyxguez2xdUfd9PiBJioPby7ydo03UrzdZXLj2/aaWBfbqYttH7fe/iVC7nUq8TbU9utIFpS2p+HhYd+q+jJo8+CLYXlbi3EfyDrRMgHOGz4WtrbXtu3EnB/CKaPuBTwODkgjg1fryD+D8XNejrTvquOQyb0qYpxeRMCmtdOmvogy4nO7EJDRLZwm/RsAu0Zd9L1Bg4/qT9lyz4t6fYgjXSzanoZHhl9qFqlvmw7jhpRvNOq0j8i9Fibeekb9yPcGQqtsjX3uF7z+OSDB5x8joIOAzgKtU08SeVgPJIEy19EoArq6wc1niZHN7Y/wZdhGwqI2tjUqZ9vz6+gOZXKvU4ntwHv718ikqcnrIc9Ilr8x8hIYN2gI3PT4fc7R+WJo2apfih/rWv0vuOsJx9qN1vVzmwc5TwIwzJsOretUN05c+hqpm1+ol+KamofCrMdvhPNHTanN2zwUHm1d5tTjWO5bJrjpqHx6EuFti1OnuKiWy9py5+VOmdTORo9euYnX23YfgU07D8HSN/fAvFd3wi2zO+D2uR/CMfYDFmHicwUEbFo7beqLggg5acYQaFRHuPk9etgNj4gsa5XnNX4laQREPCI0tmVsWCXeXB1jCpP7GMSkNVGDFgnPooJEmEixWM+WO7/ruK1gPJJuh1gL7jIUT3nEdD1IpIefUUXGnXSecLdeYVHBcsQbAPEmAcvAeJHcV6UvE36xLVUuPkI9VFaUrjko+knzNsOlk9YE/iGhR3K/s/NYDCOFi8wTAjoLtKn4MLk3VTLcLhEB0ncNH330sKlGNq8hD/vub1ArGQmJL5COJR0elgf1cJTGNlFmfF6LgI7uUCb3OpXUNtXukIYXEpHo+ywqNPnESYzWdJxwRKadNnjIMU3WmnTtrUDkn47UB7oOKlck65SW8uKR8mFb0cKPaVzLf1OT649PfeoR2yyel8uKmtzv6+51LPRopRf/0GKPLjj3/nILXP+LNuePXXLsnrdx986mtdOmvsQtdy4/PQREXdTQuY8edo1dgr4mHYh6j0izaLCieGqLmC4qI5tfHa4BTjCoUftFHd46crhr5AvLQ7o9Kn2c3gjJRs06xhQm9zHIliZuJEefRYWIsDiJkbjXkHYPOXbag2FnjoUtj19RecHVY6Gn8oMXm4rPPZF2LBvb4+YtL3h+5J4WDcKH0rjtc/35K/WUyk/OLcc7LPAmYNqirbDivb3eqODrgT6AI+28FWYS22Dih6sOvQswcDxYHinH6CzQKTc5sHom94HQcIRBCJCOafgYoodNM7JhX0VDHuplGYPaqy03uxtj1M0TsbHNoCFjZFN0dIcyudepxEi0YmxUwwuJYAlAgi2+UCsSYTynSXvesNNDyb04WekmYNCw06v88KndtDBg2UTExXrdxQPdf1qeqmqfm5dcgzxuOc4Ng7ALELXFvSnw3JA45VE9Efr4YR9Uf0q75Qz0QXHfS7y/fRLEXqzj6yUA/WZ+9MimtdOmvqiuA5w+OwiQTmv4GKKHUbeSBRv1VT2d5rQlRiOb29dyHa9MPMvV4xTnp8+JQ2Aa7BPp/qA87JaT3DzQMaYwuY9BPjQZTD56J3cjbRUfOzZSTlheWjTD0qjGqYpeidwf3sDEXiTdCZ5D92pV0SaSXmeBTqRhGpUwudcAjbMkjoCqTghMH0LuTTOyeQ15dQ1qZSs8uek4GIgbWvi6/PILtUkOZh3doUzudSpJEgQT6gpcIESLfMrnUZL7LPTXr42qY0WF3BcPtDK5T5DQF8W60Hpv4M+mtdOmvhg4VLhJESHgt+6bFBalHk7CyEbYRW1si0jc1hajY0xhch/DcKAJwMf0P44RJgNV0SuRe5Fs8nniNzqqsk0ivc4CnUS7dOpgcq+DGudJGoGw9d+EuCjJvQn90W1D0uMia/Xp6A5lcq9TSdaAbLS9ugOc8yV7M6AqZyb3CxMn6VUWeYWbJFXZJpHeprXTpr4kIXuuIx0EWKcmq1N18U5ndGSnVh1jCpP7GOSrO8A5X7ILkaromdwzuVcdM2J6nQVazG/SOZN7k6TBbQlCgHVqsjpVF+8g+XF4CQEd3aFM7nUqyZuAdAc450t2IVIdl0zumdyrjhkxvU1rp019EWXE53YhwDo1WZ2qi7ddoy763ugYU5jcRy8H0B3gnC/ZhUhV9Fkm9yvGfNvZNnXCc/Mz41qj65KD+Uz86SzQJvYD28Tk3lTJcLtEBFinJqtTdfEWZcbntQjo6A5lcq9TSW1T7Q7p/WAFE/yUdwOSWWRUR2F2yf09MH7IhbCy69kQYi+Thi33qmNGTG/T2mlTX0QZ8bldCMjoAU6T/g2AXaMu+t5c/NQHyoUyuVeGrH6Gvk/WMrk3nNz3blHfCz2b5H4mzD771NLHzppPg8em/TVcOP3BMsm/B8afczV81iWTZgEMLPkB/Om134fxg4YAPgGgpwHNg75X58Yh+ZuC+rM0+RQ2WbuZ3Cc/frhGdQTY0JY+cZe5eVKXbL5yvPPZH5U7rEzugxTUwOF9gKTW2MnUsdxpX//BPcogqWY42bmVyb3h5L7wRYeqWGHpm3tg3qs7pfI14lISfd6KVR4Jei25XwDFrvppMC8R+apy1o2FC8bcFvJUgMk9DpqgtVNqQBmWyKa+GAYtNydCBNjQZj651zG0RThEMlGUjjElEnKPxF7m7syUNIW9O+IVaH8Bej96I1OYmCKbRNrRsRyKvceVx8CxEydh0rzNcOPMdpiz7FNAS/6mnYecv76TA1XlRU/QGyHI9Ym7LLn/ZpnE75h2VulpQFOTc6RwU/pdJQxDLnQWaEOaXtMMJvc1kHCAgQiwoc18cq9jaDNwqMXaJB3doUzu/Srp274mU0S2d9PKWAWBhQ8c6wasJxGyariV3CgMOpZDf/dXDcn/y/3HYcV7ex1yj2Qf/66YvBYunbSm6m/SnJWGWLOryT0RcbS+D3bccmot935pMD2FI7mvPAFo5MYjnrwNCTimzH5rZ0xVxV6sTX2JHSyuID0E2NBmNgfRNLSlN6DSqTk1n/uejuVmDyAf8puIiPoLUNizia34PvgnTfjxRquwcwMUe44mInpTLNildlTIfVHwr3f8511yv7DkQ998GsxZ9wvXT19MI5J7sZympibHB9+kPiciZMVKbLJ2M7lXFD4nTw0BNrQZar2PwNCW2qBKuOLUfO6TJmpR1JewbDJf3a2zP4B9f+zJfD+S6oBJRDePbUlKzir12ETubeqLigw5bUYRYEObMQbYpA1tGR2xVc3WMaYou+X4LepaZHv1Q/DUooXlAfef0DLtarj+jpFww7RpsFuw9L4/Zzy0rl4Eu99sgd2L7obWN1siGaRVyPFFXQSebP0UrpyyDp5ftbtuWk4AhrjjxOPykoWbBRPHoM4CLdOP9o+/hM87u2uSYtjzr3XATVN/7f49suhtwPT46y2chFff+hjmPr/Wjf+Xh5bBb363Cbr2H6kpTwzw0wNiPJ8zAoxAPAgseH1XPAVzqcYioKM7lMm9XyW65L510ULYvfohuHfiOHhqznTY0OYh7qsfgtaWZdCz+iGYMudxONHyRG0a4UZApR3GStHghq3c+DVcPfV9uPynawEt+Uz0g4WVBQJscxuDJZNejN/aqdOadR98DpMfWwHnXTMH/uqqRx1i/g8/WeSeIzmft3Q9YBiReST0+Edk/wcTnoG//fF8eODJ38HClo1OHMZj2TOeWQ2X3/JLh/TjDYDfL6q++JXNYYwAI1CLwMe7jsCP/q3d0b21sRxiMwLp+dwrEuzdi24uWemnjoN70VLftti13KP1fkrZoo/p8Hz3op/D+8vudvI41v2JExsm+TYPhLj7hovMtEUfO0QfXyJFi/7tT3wIaFHAOP6x5T7tGwcTx2A9a/fBQ//tWM2RkIvWdjxHMv/Mb96Hnz62AtC6vnLtdsfy7u0nEvRr7l4Ct/78ZW+Ue/3Wxs/g7keXA9YX9kPS/5N/b/FNwuTeFxYOZAQiReCdDw7Az575CEY+8J5jVPu357ZHWj4Xlg0EsuVzjxb7adPg/YXj4fqJP3Is9614fsdI+I+ytf6pOXdBa8sieL9lkeOKw5Z7MwciWvRxAfqnBzc4CxASflyMxj/yX3DXf2yClrWd0Lat1m3AzN5E06ri1y+ya05Xem5B0Ugx2lKCyD2SbCT0aC1Hqzla18nSTkck8w8+/Xu4+ManHaIf1rJPPj8QFh0Yt37LQdjX3VsVP+7+pTDi2rlOnZt3dLlxQX1xE/AJI8AIKCGAehTdX1Fnov5EPXrFvWsdwxnqUP7lFwEdY4qyW47foq7iDoNp3398tEvi0SqP7jg1x5a5jstOa8sceHLiKNdqj+RftO6r1k3p8ztM4u/5sZ6TDqFHKwMtVJf/9F1nsUKXHpH4o7UfFy7MY9WvezWT+7TI/YFWI4eS3wJ99L974fqfveAQ+iAXGG9n/PzrvWl0rvE7DvgNh1lLd7gkH2888A9vLrCd6J+PPz89oFMn52EE8oQAGrlQ3+GTb3zaTRZ5egJ+3Yw21yBmnU7Mk6Aj7quf7qhXhTK596uECLPSsexP77joCJb7G0SXG/K5L7v9sOW+njjNj0e3HVzciPijtZ+sFGTxx2v06ccbg9kv7XDSo1UjU79CNxT3LmaCnwLBh97GvmMQ1zjzrp1I5ifOfMXxc6c68cNoOA9M+MO2eH/oo49PFrx98abja0YgjwignhL1Gz69Fgk8GrlIv+HTbkzLrqx5HClqfc6Mz71zE+CSe3/LvZiGbhp4txy1AZHF1LjY4R9aNpDc4wtEuBiiXz8RHlog8eVeTIN/eLNAeY1xAerbD8WDrzHBT4rg73sJTCX2OBe9CzRa4PGlV5N+0xZthet/0Qa/b9/n2yzcRQfdh5jc+8LDgRYisGvvMVe3kFEKdQ7qpRJxLz2VRv2EegrDyCWV9BITeAsHRoJdyozP/YmWexw/e9zWkl6unbJwuuN+U7UVpsdyz+Q+wdFkcFX0aBN36yFyTxYS72JLbkDigot5yB0IbwiMuRkwGHNuWuMI0AKNpP7pX78HV0/8Txjz0+cbLziiEt7+YD+0vNsJfScHAktcveFTGPfAUnbLCUSII0xHAF9SJUOQqEPITQZ1hWhMuuzukrXdq0OoDNYfpks8++3TMaYou+X4+VqSZT1Lx+yLm3sggwC5AeFCLFpdyB3IezOA1hcMoz9MRzcQeMQnCrSo45EtMjJS4DSIAC7Q6LOO1nok92+3fwaPLVljDDhhpB4biS/3/v1tCxzfez89YExHuCHWIyASdFyH6UkvrdW0fuMRX0qlp754xGuKF5/+kpsMlpc5N1DrJZ7vDiZC7v0qyRKpp7bme6hw74MQoJeBicCjhZ8UBh7xXQBSDHjEJwOi4qDHspSG3h2gMugxLZWPR/7lAwFcO3FXHJlf8etX4L6Jo+CB1aUPTsnkiSsNtmXyHaPgR/ctAnwBGPfR99MDcdXP5dqFgJeY4xpI6yMdkXTTGorHv7274vriJegY711nxfUV6+MfI5BlBLwunTJ9Ubbc+y3qRJizdJQBh9MwAqoI0AtVpFy8FiXRfYiUl3hzgOeiKxGlIR9OUn549D5FoDp5lwVVqSWT/jt3/Lbul1+pJaaRe/FGA3fP8dMD1HY+2oWAd03DdUZ0Z6E1SXRroXWLdkkT1zjRck7pqAw6Yvm0nuFx3x977AKVe8MIKCBALp0KWUCZ3Ps9ju3dstrZhz4r5L73gxUqGHFaRiBRBERXIlJwoksRKUDvUwRSlKIipXO/GwZK77V6UfniY2pqBx3ZHUl9SIx95A149a2PqzISiactfudvKfm7U/j9Sx53LPgY/6Pn3nPzdv3+Hnd7YNxhbMW+ohNH+R5YtQz+o7yFMOULi8PMK198UCjzMfiwXJubr/wUAXf5OW38i25b+CR5BLxPGGle0hHnLs1j7xG3W6S5Lx691nFaO7xPIzGP6M5C5futF+yPnvzY4BrtQ0DHmBIJuS90bc8UuS+deOuyAAAFZ0lEQVTsardP+twjRiAEAb8bBiIC3qcLpKz9LHFEBrzuSEQE6OhHCCgv7eVM9fgdqW31jll65I4LNH5d9l9ntMAjC9+GdR+8Bj+fOAru+31py8n/+tU/wg0TS6SaCPXYWS8DbgKLZJ5IvBN3Z5l8F9sdEk/p6uabOAoorbdMdL25+Re/gX/4yRMwa+pVbjoqk1yE8ENbV89dHzLa7IwKm0Pecep15/Mb417XE5ofdMQXOWk++R0pnd8R565fnRiGH0rythev2Tpu57jlXmUfgUTIvW8lA/1wsnNrJgh+YecGgP5C9qXNPWAEDEbA71E+EQr6CmMQ+cBwP8LiF+Z9Wc6PBIlhfmWEhcnciIT1Q4w796534F8f74DL7nwDRt//Dlx5zzK44s5fw0+e6aghW8t+uxJuuvNBuPqxdU7csqUvwqg7H4RJv/7KTbvo2aecMAy/6sHfwuK1X0FYvrA4p6y7noSfv/4VvPDmbrhhyiwYddez8IRQ5o3zPoRr738dbnn4Lfgfk95220Fy9R7Fvsd1HmSFDpMpxYnjQuY87OkXlUlH74v4fv33up548cMtGPnHCDACjEBqPvcMPSPACDACWUDAS6DqXcvciPgRN7+wS+9bB1fd9zbc8NB6x6r6rzOQ3C+Dv79vfe3NzH1r4PK7V8HlPyvv7DHlbbjs7lXwd1PWw8jy+WX3vAP/74F18Pf3rILS+XswMixfSNyVk1c55WMdlb/VcPnkd+Hyn75VCpv0NvywvI/339xdvasUkVrx6IdB1GFBVuh6csV4fjclCzOW28gIMAKJ+NzjHQRa7/EPK+Rrc/BYvHEv3PjiNlc+fG03Hvj+C/7RfORr8/GY/NgKWLl2u6OtipufdHzcyc9eVGFeVxgxrei+A9AFrz58daALjZgvrEzRRYfa8bc3z4d7Zr8GL738FEy6o3rnHlz3v+ju4fU/x/qQ9Yvd+sUrX9Yv6eoXWpdlj8o+97IFczpGgBFgBBiBagRwpxn8wutbGz8DKPvL0wuvIsGWJeJE3smPPiyffFwXzH/wKrhh4hTH39+br7pHfMUIMAKMACNgGgJM7k2TCLeHEWAErEYACf7Ema/Ahdc/CTfdNw1uuGOku0vNk+0nnL57CTWReMfKX74pwB108CXb+x5GIl79Ii69/CrmozJvnP484I43YhxWStelcu+AVfsP+7bFauFw5xgBRoARsAABJvcWCJG7wAgwAtlDAD8IhV99xb+Zz74Fl9z0NKz74PO6HcGbA3LtqZvYk2DD5t0w4tq5cNPUXzsf1MIv5dIfhl1849NOOLaNf4wAI8AIMALZRIDJfTblxq1mBBgByxBA0o5bZaLbzgNP/s7ZEx+J/+YdXU5P0dqO1wtbNsLf3fIsTH3yd44FXhYGzIsEvmv/Eaec51/rcIk9EnyMxzr4xwgwAowAI5BtBJjcZ1t+3HpGgBGwDAEk3/ixKyT4SMav/9kL8FdXPQrnXTPHuZ77/FrHcj97yRr4x0m/csj+J58f8EXh885uJy2WgWWxRd4XJg5kBBgBRsAqBJjcWyVO7gwjwAjkCQEk70j2keSLNwB0Q/APP1kEuEMPWf/zhA33lRFgBBiBvCLA5D6vkud+MwKMgHUIkOsOk3nrRMsdYgQYAUZAGgEm99JQcUJGgBFgBBgBRoARYAQYAUbAbASY3JstH24dI8AIMAKMACPACDACjAAjII0Ak3tpqDghI8AIMAKMACPACDACjAAjYDYCTO7Nlg+3jhFgBBgBRoARYAQYAUaAEZBGgMm9NFSckBFgBBgBRoARYAQYAUaAETAbASb3ZsuHW8cIMAKMACPACDACjAAjwAhII/D/AaHF5BtJivk7AAAAAElFTkSuQmCC;" vertex="1" parent="iOIIFBz9e_os43AqmlWz-1">
          <mxGeometry x="34" y="50" width="759" height="419" as="geometry"/>
        </mxCell>
      </root>
    </mxGraphModel>
  </diagram>
</mxfile>
